<?xml version="1.0" encoding="UTF-8"?>
<svg id="Calque_1" data-name="Calque 1" xmlns="http://www.w3.org/2000/svg" viewBox="0 0 460.14 678.21">
  <defs>
    <style>
      .cls-1 {
        fill: #103e68;
      }

      .cls-2 {
        fill: #2780c3;
      }
    </style>
  </defs>
  <g id="Logo_icône" data-name="Logo icône">
    <path id="Tracé_218" data-name="Tracé 218" class="cls-2" d="m321.24,66.67C279.11,22.23,229.57,0,172.18,0c-6.94-.02-13.88.35-20.79,1.1v100.74h.41c32.67-.5,64,12.98,86.11,37.04,8.52,9.15,15.67,19.48,21.21,30.69,3.48.11,6.98.28,10.45.53,40.65,2.57,79.88,15.9,113.68,38.62-4.55-55.66-25.23-103.01-62.02-142.05"/>
    <path id="Tracé_220" data-name="Tracé 220" class="cls-1" d="m399.04,276.38c-3.9-4.2-7.87-8.2-11.92-11.99-32.61-31.42-75.3-50.26-120.49-53.19-5.17-.36-10.41-.55-15.72-.55h-.24c-22.59,0-45,3.96-66.21,11.71-2.27.83-4.52,1.71-6.77,2.62-.74.32-1.49.63-2.24.93-24.49,10.76-46.66,26.17-65.28,45.37V0H0v666.62h110.64v-47.22c18.89,18.97,41.19,34.21,65.73,44.91,14.24,5.76,29.13,9.77,44.34,11.95,1.42.21,2.85.4,4.25.56,7.58.92,15.21,1.38,22.85,1.38h.32c57.39,0,106.94-22.23,149.05-66.66,42.12-44.43,62.96-100,62.96-166.19s-20.38-124.98-61.1-168.97m-85.16,262.93c-2.04,2.22-4.15,4.34-6.33,6.37-.73.67-1.47,1.34-2.22,2-2.61,2.3-5.31,4.47-8.1,6.51-.79.59-1.6,1.16-2.41,1.72-2.03,1.4-4.09,2.74-6.2,4-.84.51-1.69,1.01-2.53,1.49-.42.25-.85.49-1.29.72-1.72.95-3.47,1.85-5.23,2.71-.44.22-.88.43-1.33.63-1.33.63-2.67,1.22-4.02,1.8-.58.25-1.16.49-1.76.72-.78.32-1.56.63-2.34.91-1.38.53-2.76,1.02-4.16,1.49-.93.32-1.86.61-2.8.9s-1.88.57-2.83.83c-5.22,1.46-10.55,2.54-15.92,3.25-.98.13-1.97.25-2.95.35-3.96.42-7.95.63-11.94.63-.59,0-1.17,0-1.76-.02-.95.03-1.9.04-2.85.04-1.14,0-2.28-.02-3.4-.06-.5,0-1-.03-1.5-.05s-1-.04-1.49-.07c-.11,0-.24,0-.35-.03-.87-.04-1.76-.1-2.63-.18-.17,0-.35-.03-.53-.04-.73-.06-1.47-.13-2.22-.22-.37-.03-.75-.07-1.12-.12-.53-.06-1.05-.11-1.58-.19l-.56-.07c-.21-.03-.42-.06-.63-.08-.14-.02-.28-.04-.41-.07-.15,0-.3-.03-.45-.07-.49-.07-.97-.14-1.46-.22-.03,0-.06,0-.08-.02-.19-.03-.38-.06-.58-.09-.07-.02-.16-.03-.23-.04-.91-.15-1.8-.32-2.7-.49-.19-.03-.38-.07-.57-.11-.77-.15-1.53-.32-2.29-.48-.22-.04-.42-.09-.63-.14-1.21-.27-2.42-.56-3.61-.87-.25-.06-.5-.12-.75-.19-.68-.18-1.38-.37-2.06-.57-.27-.07-.54-.16-.82-.24-1.28-.37-2.54-.77-3.8-1.19-1.05-.35-2.1-.71-3.15-1.1-.67-.24-1.34-.49-2.01-.74-16.33-6.27-31.04-16.16-43.01-28.91-14.04-14.94-24.13-33.15-29.36-52.98-.26-.93-.5-1.86-.73-2.81-.39-1.55-.75-3.11-1.09-4.69-.12-.59-.26-1.19-.37-1.78-.36-1.79-.69-3.59-.99-5.41-.27-1.62-.51-3.26-.72-4.91-.25-1.86-.46-3.74-.63-5.64-.07-.63-.11-1.27-.17-1.9-.44-5.09-.65-10.32-.65-15.69,0-5.26.22-10.39.65-15.39.06-.63.11-1.24.17-1.87.18-1.86.39-3.71.63-5.53.21-1.62.45-3.23.72-4.83.3-1.8.63-3.56.99-5.32.11-.59.25-1.16.37-1.75.34-1.55.7-3.09,1.09-4.61,1.28-5.09,2.86-10.09,4.75-14.98,5.7-14.79,14.32-28.29,25.33-39.69,1.02-1.08,2.07-2.14,3.13-3.17.71-.69,1.43-1.38,2.15-2.05,3.6-3.35,7.4-6.46,11.4-9.32,1.6-1.14,3.21-2.24,4.86-3.29.82-.53,1.65-1.05,2.48-1.55.42-.26.84-.5,1.27-.75,1.27-.75,2.54-1.47,3.81-2.16,7.72-4.16,15.89-7.44,24.35-9.75.95-.26,1.88-.5,2.83-.73,9.07-2.24,18.38-3.37,27.72-3.37,1.16,0,2.32.02,3.48.05,1.29-.04,2.57-.07,3.85-.07,6.69,0,13.36.59,19.94,1.78,1.45.26,2.9.56,4.34.87,1.45.32,2.88.66,4.29,1.04,2.13.56,4.24,1.19,6.33,1.87,18.51,6.01,35.14,16.71,48.28,31.07,15.27,16.42,25.83,36.66,30.55,58.59,2.53,11.62,3.77,23.49,3.7,35.38,0,38.42-12.03,69.9-35.18,94.89"/>
  </g>
</svg>