<svg xmlns="http://www.w3.org/2000/svg" xmlns:xlink="http://www.w3.org/1999/xlink" xml:space="preserve" id="Dessin" x="0" y="0" style="enable-background:new 0 0 602.4 841.9" version="1.1" viewBox="0 0 602.4 841.9">
  <style>
    .st0,.st1{fill:none}.st1{stroke-width:.75;stroke-miterlimit:10}.st1,.st2,.st3{stroke:#1d1d1b}.st2{fill:none;stroke-width:.75;stroke-miterlimit:10;stroke-dasharray:4.8998,1.9599}.st3{stroke-width:2}.st3,.st4,.st5{fill:none;stroke-miterlimit:10}.st4{stroke:#1d1d1b;stroke-width:2;stroke-dasharray:4.8998,1.9599}.st5{stroke-width:3}.st5,.st6,.st7{stroke:#1d1d1b}.st6{fill:none;stroke-width:3;stroke-miterlimit:10;stroke-dasharray:4.8998,1.9599}.st7{stroke-width:3.5}.st11,.st7,.st8{fill:none;stroke-miterlimit:10}.st8{stroke:#1d1d1b;stroke-width:3.5;stroke-dasharray:4.8998,1.9599}.st11{stroke:#000;stroke-width:2;stroke-linecap:round;stroke-linejoin:round}.st37{fill:#3754a1}.st38{fill:#1d1d1b}
  </style>
  <pattern id="Hachure_N0" width="55" height="55" x="2203.2" patternUnits="userSpaceOnUse" style="overflow:visible" viewBox="0 -55 55 55">
    <path d="M0-55h55V0H0z" class="st0"/>
    <path d="M0-52.5h2.5" class="st1"/>
    <path d="M4.5-52.5h47" class="st2"/>
    <path d="M52.5-52.5H55M0-47.5h2.5" class="st1"/>
    <path d="M4.5-47.5h47" class="st2"/>
    <path d="M52.5-47.5H55M0-42.5h2.5" class="st1"/>
    <path d="M4.5-42.5h47" class="st2"/>
    <path d="M52.5-42.5H55M0-37.5h2.5" class="st1"/>
    <path d="M4.5-37.5h47" class="st2"/>
    <path d="M52.5-37.5H55M0-32.5h2.5" class="st1"/>
    <path d="M4.5-32.5h47" class="st2"/>
    <path d="M52.5-32.5H55M0-27.5h2.5" class="st1"/>
    <path d="M4.5-27.5h47" class="st2"/>
    <path d="M52.5-27.5H55M0-22.5h2.5" class="st1"/>
    <path d="M4.5-22.5h47" class="st2"/>
    <path d="M52.5-22.5H55M0-17.5h2.5" class="st1"/>
    <path d="M4.5-17.5h47" class="st2"/>
    <path d="M52.5-17.5H55M0-12.5h2.5" class="st1"/>
    <path d="M4.5-12.5h47" class="st2"/>
    <path d="M52.5-12.5H55M0-7.5h2.5" class="st1"/>
    <path d="M4.5-7.5h47" class="st2"/>
    <path d="M52.5-7.5H55M0-2.5h2.5" class="st1"/>
    <path d="M4.5-2.5h47" class="st2"/>
    <path d="M52.5-2.5H55" class="st1"/>
    <path d="M0-2h4.4v2H0zM0-55h4.4v2H0z" class="st0"/>
  </pattern>
  <pattern id="Hachure_N2" width="55" height="55" x="2203.2" patternUnits="userSpaceOnUse" style="overflow:visible" viewBox="0 -55 55 55">
    <path d="M0-55h55V0H0z" class="st0"/>
    <path d="M0-52.5h2.5" class="st3"/>
    <path d="M4.5-52.5h47" class="st4"/>
    <path d="M52.5-52.5H55M0-47.5h2.5" class="st3"/>
    <path d="M4.5-47.5h47" class="st4"/>
    <path d="M52.5-47.5H55M0-42.5h2.5" class="st3"/>
    <path d="M4.5-42.5h47" class="st4"/>
    <path d="M52.5-42.5H55M0-37.5h2.5" class="st3"/>
    <path d="M4.5-37.5h47" class="st4"/>
    <path d="M52.5-37.5H55M0-32.5h2.5" class="st3"/>
    <path d="M4.5-32.5h47" class="st4"/>
    <path d="M52.5-32.5H55M0-27.5h2.5" class="st3"/>
    <path d="M4.5-27.5h47" class="st4"/>
    <path d="M52.5-27.5H55M0-22.5h2.5" class="st3"/>
    <path d="M4.5-22.5h47" class="st4"/>
    <path d="M52.5-22.5H55M0-17.5h2.5" class="st3"/>
    <path d="M4.5-17.5h47" class="st4"/>
    <path d="M52.5-17.5H55M0-12.5h2.5" class="st3"/>
    <path d="M4.5-12.5h47" class="st4"/>
    <path d="M52.5-12.5H55M0-7.5h2.5" class="st3"/>
    <path d="M4.5-7.5h47" class="st4"/>
    <path d="M52.5-7.5H55M0-2.5h2.5" class="st3"/>
    <path d="M4.5-2.5h47" class="st4"/>
    <path d="M52.5-2.5H55" class="st3"/>
    <path d="M0-2h4.4v2H0zM0-55h4.4v2H0z" class="st0"/>
  </pattern>
  <pattern id="Hachure_N3_bis" width="55" height="55" x="2203.2" patternUnits="userSpaceOnUse" style="overflow:visible" viewBox="0 -55 55 55">
    <path d="M0-55h55V0H0z" class="st0"/>
    <path d="M0-52.5h2.5" class="st5"/>
    <path d="M4.5-52.5h47" class="st6"/>
    <path d="M52.5-52.5H55M0-47.5h2.5" class="st5"/>
    <path d="M4.5-47.5h47" class="st6"/>
    <path d="M52.5-47.5H55M0-42.5h2.5" class="st5"/>
    <path d="M4.5-42.5h47" class="st6"/>
    <path d="M52.5-42.5H55M0-37.5h2.5" class="st5"/>
    <path d="M4.5-37.5h47" class="st6"/>
    <path d="M52.5-37.5H55M0-32.5h2.5" class="st5"/>
    <path d="M4.5-32.5h47" class="st6"/>
    <path d="M52.5-32.5H55M0-27.5h2.5" class="st5"/>
    <path d="M4.5-27.5h47" class="st6"/>
    <path d="M52.5-27.5H55M0-22.5h2.5" class="st5"/>
    <path d="M4.5-22.5h47" class="st6"/>
    <path d="M52.5-22.5H55M0-17.5h2.5" class="st5"/>
    <path d="M4.5-17.5h47" class="st6"/>
    <path d="M52.5-17.5H55M0-12.5h2.5" class="st5"/>
    <path d="M4.5-12.5h47" class="st6"/>
    <path d="M52.5-12.5H55M0-7.5h2.5" class="st5"/>
    <path d="M4.5-7.5h47" class="st6"/>
    <path d="M52.5-7.5H55M0-2.5h2.5" class="st5"/>
    <path d="M4.5-2.5h47" class="st6"/>
    <path d="M52.5-2.5H55" class="st5"/>
    <path d="M0-2h4.4v2H0zM0-55h4.4v2H0z" class="st0"/>
  </pattern>
  <pattern id="Hachure_N4" width="55" height="55" x="2203.2" patternUnits="userSpaceOnUse" style="overflow:visible" viewBox="0 -55 55 55">
    <path d="M0-55h55V0H0z" class="st0"/>
    <path d="M0-52.5h2.5" class="st7"/>
    <path d="M4.5-52.5h47" class="st8"/>
    <path d="M52.5-52.5H55M0-47.5h2.5" class="st7"/>
    <path d="M4.5-47.5h47" class="st8"/>
    <path d="M52.5-47.5H55M0-42.5h2.5" class="st7"/>
    <path d="M4.5-42.5h47" class="st8"/>
    <path d="M52.5-42.5H55M0-37.5h2.5" class="st7"/>
    <path d="M4.5-37.5h47" class="st8"/>
    <path d="M52.5-37.5H55M0-32.5h2.5" class="st7"/>
    <path d="M4.5-32.5h47" class="st8"/>
    <path d="M52.5-32.5H55M0-27.5h2.5" class="st7"/>
    <path d="M4.5-27.5h47" class="st8"/>
    <path d="M52.5-27.5H55M0-22.5h2.5" class="st7"/>
    <path d="M4.5-22.5h47" class="st8"/>
    <path d="M52.5-22.5H55M0-17.5h2.5" class="st7"/>
    <path d="M4.5-17.5h47" class="st8"/>
    <path d="M52.5-17.5H55M0-12.5h2.5" class="st7"/>
    <path d="M4.5-12.5h47" class="st8"/>
    <path d="M52.5-12.5H55M0-7.5h2.5" class="st7"/>
    <path d="M4.5-7.5h47" class="st8"/>
    <path d="M52.5-7.5H55M0-2.5h2.5" class="st7"/>
    <path d="M4.5-2.5h47" class="st8"/>
    <path d="M52.5-2.5H55" class="st7"/>
    <path d="M0-2h4.4v2H0zM0-55h4.4v2H0z" class="st0"/>
  </pattern>
  <pattern id="Nouveau_motif_4" width="56" height="56" x="2203.2" patternUnits="userSpaceOnUse" style="overflow:visible" viewBox="0 -56 56 56">
    <path d="M0-56h56V0H0z" class="st0"/>
    <path d="M0-53.5h56M0-48.4h56M0-43.3h56M0-38.2h56M0-33.1h56M0-28h56M0-22.9h56M0-17.8h56M0-12.7h56M0-7.6h56M0-2.5h56" class="st3"/>
    <path d="M0-2h4.5v2H0zM0-56h4.5v2H0z" class="st0"/>
  </pattern>
  <pattern xlink:href="#Hachure_N3_bis" id="SVGID_1_" patternTransform="scale(.3644 .5201) rotate(45 -11176.322 -31336.246)"/>
  <path d="M206 409.4c-.2.6-.3 1.2-.5 1.8-.1.2-.1.4-.2.6.3-.8.6-1.5.9-2.3 0 0-.1-.1-.2-.1zm205.2-82.7c-.1-1.7-.3-3.5-.6-5.2-.1-.7-.4-1.4-.5-2.1-.2.5-.4 1.1-.6 1.7-.7 2-1 4.1-1.6 6.2 0 .4 0 .9-.1 1.3.5.5 1 .7 1.8.6 1.2-.4 1.6-1.4 1.6-2.5zm6.2 3.2c.2-.1.5-.2.7-.2.4-.1.7-.3.9-.7.2-.4.4-.8.6-1.1-.8.5-1.5 1.2-2.2 2zm5.6-4.6c.1 0 .2-.1.3-.1.7-.2 1.4-.5 1.8-1.1-.8.3-1.5.7-2.1 1.2zm15.8-5.8c-.8.1-1.6.3-2.3.5h.5c.8 0 1.5-.1 2.1-.5h-.3z" style="fill:url(#SVGID_1_)"/>
  <pattern xlink:href="#Hachure_N3_bis" id="SVGID_00000052070465975027504330000005913375148373776019_" patternTransform="scale(.5) rotate(45 -6804.876 -22612.117)"/>
  <path d="M401.2 506.8c0 .1.1.4.3.5.9.8 1.8 1.6 2.6 2.4.4-1.4.8-2.9 1.2-4.3-1.4.4-2.7.9-4.1 1.4zm26-267.4v1h.2v-1h-.2zm-8.7-36.9c-.2.1-.4.2-.5.2.9 2.7 2.1 5.2 3.5 7.6.2-.1.3-.2.5-.2-1.1-2.6-2.3-5.1-3.5-7.6z" style="fill:url(#SVGID_00000052070465975027504330000005913375148373776019_)"/>
  <pattern xlink:href="#Hachure_N3_bis" id="SVGID_00000104705176290584810460000007668839515827469205_" patternTransform="scale(.5) rotate(45 -6804.876 -22612.117)"/>
  <path d="M409.1 451.8c-.1-.4-.3-.9-.4-1.3.1.5.3 1 .5 1.5-.1-.1-.1-.1-.1-.2z" style="fill:url(#SVGID_00000104705176290584810460000007668839515827469205_)"/>
  <pattern xlink:href="#Hachure_N3_bis" id="SVGID_00000181067848815685532120000004240506604351209107_" patternTransform="scale(.5) rotate(45 -6804.876 -22612.117)"/>
  <path d="M407.8 328.6c-.1.7-.4 1.5-.4 2.2 0 3.3-.1 6.7-.1 10.1 0 3.3-.3 6.7.5 10-.2 1.4.6 2.8.6 4.2.9 2.1.8 4.5 1.8 6.6.5 2.9 1.7 5.6 3 8.2 3.6 7.3 7.4 14.6 10.8 22 .8 1.8 1.7 3.6 2.5 5.4.4 1 .8 2.1 1.2 3.1.4 1.1.7 2.1 1 3.2-.1 1.7-.3 6.8-.8 8.6-1.7 5.9-4.6 7.9-8.4 12.7-1.4 1.8-2.9 3.2-4.7 4.5h-.1c-3.6 1.9-6.6 2.7-10.3 3.2-.6.1-3.9 2.2-3.9 2.2.1.5-.1-.1.6.8 1 1.3 2.1 2.6 3.3 3.8 2.3 2.4 3.5 5.3 3.9 8.5.1.8.2 1.6.4 2.3.1.4.3.9.4 1.3 0 .1 0 .2.1.2v.1c.3.8.6 1.6 1 2.4.6 1.2 1.5 2.2 2.6 3.1.1 0 .1.1.2.1.4.3.9.7 1.3 1 .8.6 1.8 1.3 2.8 1.3 1.8.1 3.4.7 5.2.6.5 0 1 0 1.4.2 1.6.7 2.7 1.9 3.3 3.6.1.4.2.9 0 1.2-.7 1.3-1 2.7-1.9 3.8-1 1.3-2.1 2.6-3.7 3.3-1.2.5-2.5.9-3.8 1.3-.8.2-1.5.3-2.3.5-1 .2-1.6 1-1.7 2-.1 1.2.3 2.4.9 3.4.8 1.3.3 2.8.9 4.1-.6.9-.3 2-.6 3-.7 2-1.6 3.9-2.7 5.8-.5.9-1.1 1.8-1.9 2.4-1.5 1.2-3 2.6-4.8 3.5-1.5.8-3 1.8-4.5 2.7-.5.3-.8.8-.8 1.4 0 .7 0 1.4.4 2.1.4.7.6 1.5.9 2.2 1.4 2.8 2.8 5.7 4.1 8.6 1.3 3 2.6 6.1 3.6 9.3.8 2.3 1.3 4.6 1.2 7-.1 1.3.1 2.6-.2 3.8-.6 2.6-1.3 5.2-2.5 7.6-2 4.3-4.8 8.2-7.7 12-1.3 1.7-2.7 3.3-4.1 5-.5.5-1.1.9-1.6 1.4-.9.8-2.1 1.1-3.2 1.6-1.9 1-3.9 1.7-5.9 2.4-1.9.6-3.8 1.1-5.7 1.7-1 .3-2 .3-3 .5-.9.2-1.9.3-2.8.5-.1 0-.3.1-.4.1-1 .2-2 .4-3.1.4-1.1-.1-2 .4-3.1.4-4.5 0-9 0-13.4.1-.1 0-.2 0-.4-.1-.1-.1-.2-.1-.4-.2.7-.4 1.2-.8 1.8-1 1.6-.9 3.1-2 4.2-3.5 1-1.4 2.1-2.8 3.2-4.1.9-1.1 1.3-2.5.8-4-.6-2-1.8-3.5-3.4-4.7-1.8-1.4-3.9-2.1-6-2.9-1-.4-2.2-.4-3.2-.8-1.1-.4-2.4 0-3.5-.7-1.1 0-2.2-.1-3.3-.1h-5.8c-.4 0-.8.1-1.2 0-1.5-.5-3-.4-4.5-.4-1.7 0-3.3-.6-5-.6-.1 0-.3-.2-.4-.2-1.6-.4-3.2-.7-4.8-1.2-1.6-.4-3.2-.9-4.7-1.6.7-.5 1.4-.8 2.3-.8.6 0 1.2.1 1.7-.1 2-.6 4.2-.8 6.2-1.3 1.7-.5 3.5-1 5.2-1.5.6-.2.9-.6 1-1.2 0-.6-.2-1.1-.7-1.4-.4-.2-.8-.4-1.3-.6-4.2-1.4-8.5-2.2-12.9-2.9-1.2-.2-2.5-.4-3.7-.7-3.2-.8-6.4-1.6-9.5-2.7-5-1.7-10.1-3.2-15-5.2l-6.6-2.7c-2.2-.9-4.3-2-6.5-3-1.4-.6-2.7-1.4-4.1-1.9-.4-.1-.7-.3-1.1-.5-.9-.5-1.8-1.1-2.7-1.5-3.3-1.6-6.4-3.5-9.5-5.5-1.9-1.2-3.8-2.6-5.7-4 .7-.4 1.2.2 1.7.2h6.5c.7 0 1.2-.4 1.8-.7.1 0 .1-.4 0-.6 0-.1-.2-.2-.3-.3-2.9-2.1-5.7-4.3-8.5-6.5-1.1-.8-2-1.9-3.1-2.6-1-.7-1.8-1.5-2.7-2.3-.9-.8-1.9-1.5-2.7-2.3-3.6-3.5-7.3-6.9-10.5-10.9-.8-1.1-1.8-2.1-2.5-3.2-2.8-4-5.5-8.2-7.7-12.5-3.2-6.1-6.3-12.3-8.8-18.7-.8-2-1.6-3.9-2.3-6-1.7-4.7-3.2-9.5-4.6-14.4-.9-3.3-1.8-6.7-2.6-10.1-.4-1.6-.7-3.2-1-4.8-.1-.3-.2-.6-.4-.8-.3.8-.6 1.5-.9 2.3-.2.7-.5 1.4-.9 2.1-.8 1.7-1.9 3.2-3 4.7-.8 1.1-1.6 2.2-2.7 3.1-1.5 1.3-3 2.6-4.7 3.6-.9.4-1.6 1-2.5 1.5-.6.4-.9 1.2-.6 1.9.1.4.8.8 1.2.6.4-.1.7-.3 1.1-.3 1.2-.1 2.4.1 3.5-.4.2-.1.4.2.4.5-.1.3-.1.7-.3.9-.9 1-.8 2-.3 3.1.2.4.3.7.5 1.1 1.3 2.5 2.3 5.2 3.2 7.9.1.4.3.8.3 1.1 0 1.1.1 2.2-.3 3.3-.3.8-.3 1.8 0 2.6.2.5.2 1.1.3 1.6 0 .5.2 1.1.3 1.6.6 3.3 1.9 6.5 2.8 9.8 1.1 3.7 2.4 7.2 3.8 10.8v-.5c0-2 .5-3.9.8-6.2 2.8 3.5 2.8 7.3 3.3 11 .4 3.1.8 6.1 1.2 9.2.8 2 1.6 4 2.5 6.1 1.7 4.1 3 8.3 4.6 12.4.6 1.7 1.2 3.4 1.6 5.2.6 2 1.4 3.9 2.1 5.8.5 1.4 1.1 2.8 1.7 4.2 1.2 2.6 2.6 5.1 4.2 7.5 2.6 4.1 5.6 7.9 9.2 11.2 1 .9 2 1.8 3.1 2.7 1.3 1.1 2.5 2.2 3.8 3.2 2.6 1.9 5.2 3.9 7.9 5.8 3.8 2.7 7.8 5.2 12 7.3 1 .5 2.1 1.1 3.1 1.7 1.3.9 2.8 1.6 4.1 2.3 2.7 1.5 5.4 2.6 8.2 3.8 1.1.5 2.2.8 3.3 1.2 3.3 1.2 6.7 2.3 10.1 3.3 1.9.5 3.8 1 5.7 1.4.7.1 1.2.4 1.6 1 .8 1.1 1.5 2.3 2.4 3.2 2.4 2.6 4.9 5 7.7 7.2.9.7 1.9 1.5 2.9 2.1 2.3 1.6 4.6 3.2 6.9 4.7 1.2.8 2.2 1.8 3.1 2.9.6.7.9 1.5.9 2.4.1 2.4 0 4.8-1 7-.3.7-.5 1.5-.8 2.2-.2.7-.5 1.4-.6 2-.1 1.5-.1 3-.1 4.5 0 .8.1 1.5.4 2.3.3.9.3 1.9.6 2.8.3 1 .4 2 .5 3 .3 3.2-.6 6.1-1.8 9-.9 2.1-1.9 4.2-2.9 6.3-1.2 2.6-1.9 5.2-1.5 8.1 0 .3 0 .7.1.9 1 2.7 2.9 4.2 5.8 4.6 1.2.2 2.4 0 3.6.1 1.1.1 2.1-.3 3-.6 1.6-.7 3.2-1.5 4.7-2.4 2.6-1.5 4.6-3.7 6.8-5.6 2.2-1.9 4.2-3.9 6.6-5.5 1.8-1.2 3.6-2.2 5.6-3 1.3-.5 2.4 0 3.3 1.1 1.2 1.5 1.4 3.3 1.7 5.1.2 1.7.1 3.4 0 5-.1 1.2-.3 2.4-.5 3.5-.4 1.9-1 3.8-1.5 5.7-.3 1.1-.6 2.3-1.1 3.4-.6 1.1-.6 2.3-.7 3.5 0 .2-.2.4-.3.7.7.2 1.4.2 2.1 0 2.7-.9 5.4-1.8 8-3 4.5-2.2 8.9-4.6 13.1-7.2 3-1.8 5.8-3.8 8.6-5.9 1.7-1.3 3.4-2.6 5-4 2.2-1.7 4.1-3.8 6.3-5.5 1.3-1.1 2.2-2.5 3.4-3.7 2.7-2.7 4.9-5.8 7.1-9 1.1-1.6 2.1-3.1 3.1-4.8 1.5-2.6 3-5.2 4.4-7.9 1.8-3.4 3.3-6.9 4.7-10.4 1-2.3 1.8-4.7 2.6-7.1 1.4-3.8 2.6-7.6 3.6-11.5.7-2.7 1.1-5.4 1.6-8.1.2-.9.2-1.8.1-2.6-.1-1 .4-1.9.4-2.8.1-3.1 0-6.2.4-9.3.4-2.4.1-4.9.5-7.4.4-2.3.2-4.6.5-6.9.3-2.4.1-4.8.1-7.2 0-1.4.1-2.9 0-4.3-.1-1.5.6-3 .5-4.5 0-.2.2-.4.2-.7.6-2.6 1.3-5.2 2.1-7.8 1.1-3.9 2.6-8.6 3.9-11.9.9-2.2 1.7-4.4 2.3-6.7.8-3.2 1.9-6.3 2.8-9.5.7-2.6 1.7-5.1 2.4-7.7.8-2.8 1.6-5.6 2.5-8.4.2-.8.2-1.5.4-2.3.5-1.6.9-3.3 1.1-5.1.2-2.2.8-4.3 1.2-6.5l1.2-6c.3-1.5.6-2.9.9-4.4.3-1 .3-2 .6-3 .4-1.1.5-2.3.8-3.5.5-2.5 1.3-4.9 1.7-7.4.2-1.5.7-2.9 1-4.4.3-1.5.9-2.9.9-4.4.8-2.3 1.2-4.7 1.8-7.1.9-4 2.1-7.9 3.2-11.9.5-1.9 1.1-3.8 1.7-5.7.6-2 .9-4 1.4-6 .2-.9.4-1.9.5-2.8.1-1.2.3-2.3.5-3.5.2-1.2.1-2.4.1-3.6 0-.4.1-.8.2-1.2.3-.7.3-1.5.1-2.1-.4-1-.3-2-.3-3.1 0-1.4 0-2.9.1-4.3.2-2.9-.5-5.7-1.1-8.5-.4-1.8-1-3.6-1.6-5.4-.6-1.8-1-3.6-1.5-5.5-.7-2.5-1.2-5-1.7-7.6-.2-1.2-.3-2.4-.6-3.5-.2-.9-.4-1.7-.3-2.6.1-1-.5-1.8-.4-2.8.1-3.4-.4-6.8.4-10.2 0-2.4.7-4.7 1.2-7 .5-2.4 1.1-4.7 1.7-7.1.2-.7.5-1.4.5-2.1 0-1.1.4-2.2.5-3.3.1-1.2.3-2.4.4-3.5.2-2.3.1-4.6.1-7 0-1 0-2.1-.4-3 0-2-.9-3.8-1.4-5.7-.3-1.2-.9-2.2-1.3-3.3-.4-1.1-.7-2.3-1.1-3.4-1-3.1-2-6.2-3.2-9.2-1.4-3.5-2.6-7-3.5-10.5-.6-2.4-1.2-4.9-1.2-7.5 0-1.9-.6-3.8-.5-5.7-.6-1-.3-2.2-.6-3.3-.8-2.9-1.5-5.8-2.6-8.6-1.6-4.1-2.8-8.4-4.7-12.4-.5-1-.8-2.1-1.2-3.1-1.4-3.9-2.7-7.8-4.2-11.6-.6-1.5-1.4-2.8-1.9-4.3-1-2.9-2.6-5.6-4.3-8.2-2.4-3.9-5.3-7.4-8.5-10.6-2.2-2.2-4.8-3.5-7.8-4.2-1-.2-1-.2-.8-1.1.1-.5.2-1.1.2-1.7 0-.2-.2-.5-.4-.5s-.5.1-.6.2c-.2.2-.4.5-.5.8-.3.6-.5 1.1-.8 1.7h-4.6c-.6 0-.9-.2-1.2-.6-.5-.7-.6-1.7-1.4-2.2-.3 1.5-.3 1.9.2 3l.3.6c.9 1.9 1.8 3.7 2.9 5.5 1.7 3 3.5 5.9 5.2 8.8.7 1.2 1.5 2.4 2.1 3.7 1.2 2.7 2.3 5.5 3.2 8.4.5 1.7.9 3.4 1.3 5 .2.8.1 1.8.1 2.6.1.9.3 1.7.4 2.6.2 2.2-.1 4.4.4 6.6.3 1.2.1 2.6.3 3.8.3 1.2.1 2.5.7 3.7.3 2.5 1.1 4.9 1.7 7.4.8 2.9 1.7 5.7 2.7 8.6 1 3 1.9 6 3.1 8.9.8 1.9 1.4 3.9 2 5.8.4 1.3.7 2.6 1 3.9.3 1.1.1 2.2-.2 3.3-.8 2.9-2 5.7-3.5 8.3-.9 1.5-1.7 3-2.3 4.7-.9 2.3-1.6 4.6-2 7-.2 1.2-.5 2.3-.8 3.4-.7 2.3-1.8 4.4-3.1 6.4-1.3 2.1-3 3.9-4.5 5.9-1.2 1.5-2.4 3-3.5 4.5-1.3 1.9-2.3 3.9-3.2 6l-2.7 10.1zm13.7-118.3c-1.5-2.4-2.7-4.9-3.5-7.6.2-.1.4-.2.5-.2 1.2 2.5 2.3 5.1 3.5 7.6-.2 0-.3.1-.5.2zm5.8 30.1h-.2v-1h.2v1zm-23.2 269.3c-.8-.8-1.6-1.7-2.6-2.4-.2-.2-.3-.5-.3-.5 1.4-.5 2.7-.9 4-1.4-.3 1.4-.7 2.9-1.1 4.3zm51.5-180.3c0 .1-.1.2-.1.4-1 2.6-1.4 5.1-3.6 6.6l-.7.5c-.6.4-.3.5-1 .8-.5.2-1.1.8-1.7.9-2.3.8-5.8.7-8.3.8-3.5-.6-6.9-1.2-10.4-1.8-3.9-.6-7.7-1.2-11.6-1.9h-.2c-1.2-.1-2.5-.2-3-1.6-.4-1 0-1.8.6-2.5.2-.6.4-1.3 1.1-1.6l.6-.3c.7-.7 1.4-1.4 2.2-2.1.8-1.2 1.9-2 3.4-2.5l2.1-1.2c.1-.1.2-.3.2-.4.1-.3.5-.5.9-.8 1.5-1 3.2-1.4 4.9-1.8 1.1-.3 2.3-.6 3.4-.9.7-.1 1.4-.2 2.1-.2.8-.2 1.6-.3 2.3-.5h.3c.2-.1.4-.2.5-.4.4-.4.9-.6 1.5-.6 1.1 0 2.2-.2 3.3.3.2.1.5 0 .7 0 1.6-.6 3.1-.3 4.6.2.6.2 1.1.4 1.7.7 1.2.6 2.4 1.4 3.4 2.4.3.4.5.8.6 1.4.3.6.5 1.2.6 1.8.2 1.4.1 2.9-.4 4.3z" style="fill:url(#SVGID_00000181067848815685532120000004240506604351209107_)"/>
  <pattern xlink:href="#Hachure_N3_bis" id="SVGID_00000101072857306377762950000009733428477364789176_" patternTransform="scale(.5) rotate(45 -6804.876 -22612.117)"/>
  <path d="M391.9 436.9c-.1.5.1 1.4-.3 2.4-.4.8-.1 1.9-.4 2.8-.4 1.1-.4 2.3-.6 3.5-.4 2.1-1.1 4-1.9 5.8-.4.8-.9 1.3-1.6 1.8-.4.3-1.4.3-1.8-.1l-1.2-1.2c-.6-.6-1.3-.7-2-.4-.6.2-1.1.6-1.6 1-1.2.8-2.3 1.7-3.5 2.5-2.6 1.8-5.4 3.2-8.4 4.3-8.7 3.1-17.5 5.8-26.2 8.9-2.4.8-4.8 1.6-7.1 2.5-1.4.5-2.8 1.2-4 2-2.4 1.5-4.9 3-7.1 4.7-.4.3-.9.7-1.2 1.1l-3.4 3.4c-.3.3-.6.9-1.2.6-.5-.3-.3-.9-.2-1.3.1-.8.3-1.5.5-2.3.4-1.4.8-2.7 1.2-4.1.6-1.7.9-3.5 1.6-5.2 1.1-2.9 2-5.8 3.4-8.6 1.6-3.1 3.4-5.9 6.1-8.2 2.1-1.8 4.4-3.4 6.8-4.7 2.1-1.1 4.2-2.2 6.4-3.2 1.1-.5 2.3-1.1 3.5-1.5 2.1-.8 4.2-1.5 6.3-2.1 2.2-.7 4.4-1.3 6.6-1.8 1.2-.3 2.4-.7 3.6-1 1.8-.4 3.7-.8 5.5-1.3 2-.6 4-.7 6-1.4 2.2-.1 4.3-1.1 6.5-1.1 1.2-.6 2.5-.3 3.7-.7 1.1-.4 2.3-.6 3.4-1 1.2-.4 2.5.4 2.7 1.6 0 .6-.1 1.2-.1 2.3z" style="fill:url(#SVGID_00000101072857306377762950000009733428477364789176_)"/>
  <pattern xlink:href="#Hachure_N2" id="SVGID_00000144333640225467247490000006743580441734277798_" patternTransform="scale(.5) rotate(45 -6760.91 -22630.328)"/>
  <path d="M395.8 497.5c-2.7 3.2-6 5.2-9.9 6.3.2-.2.5-.5.8-.7 1.5-1 3-1.8 4.6-2.5 1.7-.9 3.2-1.9 4.5-3.1z" style="fill:url(#SVGID_00000144333640225467247490000006743580441734277798_)"/>
  <pattern xlink:href="#Hachure_N2" id="SVGID_00000044171422442739703560000008417734556185062310_" patternTransform="scale(.5) rotate(45 -6760.91 -22630.328)"/>
  <path d="M396.4 489.8h-.2c-1.2.3-2.4.9-3.4 1.6-1.8 1.2-3.5 2.5-5.2 3.8-2.2 1.7-4.4 2.7-6.8 3.1 1.4-.6 2.8-1.4 4.1-2.3 2-1.4 3.9-2.8 5.9-4.1 1.4-.9 3-1.5 4.6-2 .2-.1.6-.1 1-.1z" style="fill:url(#SVGID_00000044171422442739703560000008417734556185062310_)"/>
  <pattern xlink:href="#Hachure_N2" id="SVGID_00000069373461139633850810000002449616790481160620_" patternTransform="scale(.5) rotate(45 -6760.91 -22630.328)"/>
  <path d="M205.4 411.8c-.2.7-.5 1.4-.9 2.1l.9-2.1z" style="fill:url(#SVGID_00000069373461139633850810000002449616790481160620_)"/>
  <pattern xlink:href="#Hachure_N2" id="SVGID_00000071531601561489293320000008560704399097535415_" patternTransform="scale(.5) rotate(45 -6760.91 -22630.328)"/>
  <path d="M426.9 465.6c-.7 1.3-1 2.7-1.9 3.8-1 1.3-2.1 2.6-3.7 3.3-1.2.5-2.5.9-3.8 1.3-.8.2-1.5.3-2.3.5-1 .2-1.6 1-1.7 2-.1 1.2.3 2.4.9 3.4.8 1.3.3 2.8.9 4.1-.6.9-.3 2-.6 3-.7 2-1.6 3.9-2.7 5.8-.5.9-1.1 1.8-1.9 2.4-1.5 1.2-3 2.6-4.8 3.5-1.5.8-3 1.8-4.5 2.7-.5.3-.8.8-.8 1.4 0 .7 0 1.4.4 2.1.4.7.6 1.5.9 2.2 1.4 2.8 2.8 5.7 4.1 8.6 1.3 3 2.6 6.1 3.6 9.3.8 2.3 1.3 4.6 1.2 7-.1 1.3.1 2.6-.2 3.8-.6 2.6-1.3 5.2-2.5 7.6-2 4.3-4.8 8.2-7.7 12-1.3 1.7-2.7 3.3-4.1 5-.5.5-1.1.9-1.6 1.4-.9.8-2.1 1.1-3.2 1.6-1.9 1-3.9 1.7-5.9 2.4-1.9.6-3.8 1.1-5.7 1.7-1 .3-2 .3-3 .5-.9.2-1.9.3-2.8.5-4.5.3-9 .6-13.5.7-2.3.1-4.5.1-6.8.1-.1-.1-.2-.1-.4-.2.7-.4 1.2-.8 1.8-1 1.6-.9 3.1-2 4.2-3.5 1-1.4 2.1-2.8 3.2-4.1.9-1.1 1.3-2.5.8-4-.6-2-1.8-3.5-3.4-4.7-1.8-1.4-3.9-2.1-6-2.9-1-.4-2.2-.4-3.2-.8-1.1-.4-2.4 0-3.5-.7-1.1 0-2.2-.1-3.3-.1h-5.8c-.4 0-.8.1-1.2 0-1.5-.5-3-.4-4.5-.4-1.7 0-3.3-.6-5-.6-.1 0-.3-.2-.4-.2-1.6-.4-3.2-.7-4.8-1.2-1.6-.4-3.2-.9-4.7-1.6.7-.5 1.4-.8 2.3-.8.6 0 1.2.1 1.7-.1 2-.6 4.2-.8 6.2-1.3 1.7-.5 3.5-1 5.2-1.5.6-.2.9-.6 1-1.2 0-.6-.2-1.1-.7-1.4-.4-.2-.8-.4-1.3-.6-4.2-1.4-8.5-2.2-12.9-2.9-1.2-.2-2.5-.4-3.7-.7-3.2-.8-6.4-1.6-9.5-2.7-5-1.7-10.1-3.2-15-5.2l-6.6-2.7c-2.2-.9-4.3-2-6.5-3-1.4-.6-2.7-1.4-4.1-1.9-.4-.1-.7-.3-1.1-.5-.9-.5-1.8-1.1-2.7-1.5-3.3-1.6-6.4-3.5-9.5-5.5-1.9-1.2-3.8-2.6-5.7-4 .7-.4 1.2.2 1.7.2h6.5c.7 0 1.2-.4 1.8-.7.1 0 .1-.4 0-.6 0-.1-.2-.2-.3-.3-2.9-2.1-5.7-4.3-8.5-6.5-1.1-.8-2-1.9-3.1-2.6-1-.7-1.8-1.5-2.7-2.3-.9-.8-1.9-1.5-2.7-2.3-3.6-3.5-7.3-6.9-10.5-10.9-.8-1.1-1.8-2.1-2.5-3.2-2.8-4-5.5-8.2-7.7-12.5-3.2-6.1-6.3-12.3-8.8-18.7-.8-2-1.6-3.9-2.3-6-1.7-4.7-3.2-9.5-4.6-14.4-.9-3.3-1.8-6.7-2.6-10.1-.4-1.6-.7-3.2-1-4.8-.1-.3-.2-.6-.4-.8 1.2-3 2.5-6 3.7-9h.1c1.5.3 2.2 1.2 2.7 2.5 1.3 3.3 2.5 6.6 4 9.8 1.1 2.3 2.3 4.5 3.7 6.7 2.6 4.2 6.1 7.5 10.4 10.1 2.7 1.6 5.4 3.5 7.8 5.6 4.3 3.7 6.4 8.7 6.9 14.3.3 3.8.5 7.5.8 11.2.3 4.2 2.1 7.7 4.9 10.7 1.6 1.7 3.3 3.3 5.1 4.8 6.6 5.4 13.9 9.7 21.6 13.2 1 .4 1.9.7 2.9 1.1 3.9 1.6 7.7 1.5 11.6-.1 3-1.3 6.2-2.2 9.3-3 3-.7 5.1.4 6 3.3.8 2.5 1.3 5.1 1.4 7.7.2 3.4 1.3 6.2 3.8 8.5 1.5 1.4 3 2.9 4.7 4.1 10 7 20 14.1 30.1 21 3.8 2.6 7.9 4.8 12.5 6 6.6 1.7 13.2 1 19.7-.7 3.1-.8 6-2.1 9-3.2 4.3-1.7 6.5-5 7.4-9.3.6-2.6.6-5.2.1-7.9-.7-3.7-2.8-6.3-6.2-8-1.4-.7-2.7-1.6-3.9-2.6-1-.9-1.2-1.6-.6-2.4 3.9-1.1 7.2-3 9.9-6.3.5-.5 1.1-1 1.5-1.6.6-.8 1.3-1.7 1.6-2.6.8-2.1-.5-3.7-2.5-3.3-.4-.1-.8 0-1.2.1-1.6.5-3.2 1.2-4.6 2-2 1.2-3.9 2.7-5.9 4.1-1.3.9-2.7 1.7-4.1 2.3-2 .3-4.1.2-6.3-.5-3.1-.9-6.4-1.8-9.2-3.3-5-2.6-9.8-5.7-14.6-8.7-2.9-1.8-4.9-4.6-6.5-7.5-.2-.4-.5-.9-.6-1.3-.3-1.3.1-1.8 1.4-2.1.4-.1.7-.2 1-.3-1.4-.8-2.9.5-4.6-.7.7-.3 1.2-.6 1.8-.8 8.4-3.3 16.8-6.6 25.2-9.8 4.3-1.7 8.7-3.2 13-4.8 3.1-1.1 6.2-.9 9.1.6 5.6 2.8 11.2 2.6 16.9.4 1.8-.7 3.6-1.3 5.5-1.9.4.3.9.7 1.3 1 .8.6 1.8 1.3 2.8 1.3 1.8.1 3.4.7 5.2.6.5 0 1 0 1.4.2 1.6.7 2.7 1.9 3.3 3.6.4.4.4.9.2 1.2z" style="fill:url(#SVGID_00000071531601561489293320000008560704399097535415_)"/>
  <pattern xlink:href="#Hachure_N2" id="SVGID_00000113354792764010622210000009567788219059484579_" patternTransform="scale(.5) rotate(45 -6760.91 -22630.328)"/>
  <path d="M371.6 342.5c0 .2-.1.5-.4.7-.4.3-1.2.2-1.7 0-1.6-.7-3.3-1.1-5.2-1-1.6 4.2-4.8 6.9-8.4 9.3-2.2 1.4-3.7 3.5-4.9 5.8-.8 1.5-1.6 3.1-2.6 4.6-2.6 3.9-6 5-10.4 3.4-3.7-1.3-6.8-3.4-9.4-6.4-2.2-2.6-4.4-5.1-6.5-7.7-2.9-3.4-6.5-5.3-10.8-6.1-3-.6-5.9-1.2-8.9-2-3.9-1-7.2-3.1-9.7-6.3-.3-.4-.7-.7-.8-1.2-.2-.7-.5-1.6-.3-2.2.4-.9 1.4-.8 2.3-.5.5.2 1 .3 1.5.5.4.5.9.8 1.5.9.7.2 1.4.3 2.1.3 5.9 2 12 3.2 18.2 4.3h.2c4.4.9 8.8 1.2 13.3 1.3 3.7 0 7.1-.7 10.4-2.5 3-1.6 5.9-3.2 8.8-4.9.8-.5 1.4-1 1.7-1.5 1.9-.5 3.9-.5 6-.1.4.1.9.1 1.6.3-.2-.6-.3-1.3-.6-1.4-1.4-.7-1.9-2.1-2.7-3.3-6.3-9.5-15.4-12.4-26.2-11.3-3.9.4-7.7 1.7-11.2 3.4-6.2 1.8-12.2 4.4-17.8 7.6-.9-.5-1.5-1.6-1.7-3.6-.4-3.3.5-6.4 2.2-9.1 1.2-1.9 2.6-3.7 3.9-5.5 1.9-2.6 1.9-3.6.1-6.3l-1.2-1.8c-1.4-2.1-1.1-3.3 1.4-4.1 2-.7 4.1-1.4 6.2-1.8 8.5-1.8 17.1-3.2 25.8-3.8.8-.1 1.6-.1 2.4 0 .9.1 1.7.4 2.1 1.3.3 1-.2 1.7-.9 2.3-.8.7-1.7 1.2-2.4 2-.9.8-1.7 1.7-2.3 2.7-1 1.5-.6 3 1 3.8 1.1.6 2.4.9 3.6 1.1 4.1.8 7.9 2.1 10.9 5 4.1 4 7.1 8.7 8 14.4.4 2.4 1.4 4.3 2.8 6.2l2.4 3.3c.7 1.1 1.4 2.2 2.3 3.2.2.2.3.4.5.6.3.4.6.9.9 1.3.4.7.8 1.3 1.1 2.1.4 1.1.7 2.1 1.8 2.7z" style="fill:url(#SVGID_00000113354792764010622210000009567788219059484579_)"/>
  <pattern xlink:href="#Hachure_N2" id="SVGID_00000121238167731590936530000015607477186005722753_" patternTransform="scale(.5) rotate(45 -6760.91 -22630.328)"/>
  <path d="M296.1 333.5c1 .4 1.9.7 2.9 1-.7 0-1.4-.1-2.1-.3-.6-.2-1.2-.5-1.5-.9.2 0 .5.1.7.2z" style="fill:url(#SVGID_00000121238167731590936530000015607477186005722753_)"/>
  <pattern xlink:href="#Hachure_N2" id="SVGID_00000087400596838678390680000005144979160430759594_" patternTransform="scale(.5) rotate(45 -6760.91 -22630.328)"/>
  <path d="M347.6 333.1c1.3-.9 2.6-1.5 4-1.9-.3.5-.9 1-1.7 1.5-2.9 1.7-5.8 3.4-8.8 4.9-3.2 1.7-6.7 2.5-10.4 2.5-4.5 0-9-.4-13.3-1.3 6.5 1.2 12.9.7 19.4-.3.5-.1 1-.2 1.4-.4 3.1-1.5 6.5-2.9 9.4-5z" style="fill:url(#SVGID_00000087400596838678390680000005144979160430759594_)"/>
  <pattern xlink:href="#Hachure_N2" id="SVGID_00000023965700785735023350000008637921440211541946_" patternTransform="scale(.5) rotate(45 -6760.91 -22630.328)"/>
  <path d="M365 332.7c.9 1.3 1.8 2.6 2.8 3.9-.2-.2-.3-.4-.5-.6-.8-1-1.6-2.2-2.3-3.3z" style="fill:url(#SVGID_00000023965700785735023350000008637921440211541946_)"/>
  <pattern xlink:href="#Hachure_N2" id="SVGID_00000145050925260282694160000016619801628065487770_" patternTransform="scale(.5) rotate(45 -6760.91 -22630.328)"/>
  <path d="M371.6 342.5c-1.1-.6-1.4-1.6-1.8-2.5-.3-.8-.7-1.5-1.1-2.1.6.8 1.1 1.6 1.7 2.4.2.3.4.7.7 1 .2.4.5.8.5 1.2z" style="fill:url(#SVGID_00000145050925260282694160000016619801628065487770_)"/>
  <pattern xlink:href="#Hachure_N2" id="SVGID_00000150089846909952874780000016381336708528416403_" patternTransform="scale(.5) rotate(45 -6760.91 -22630.328)"/>
  <path d="M220.8 550.1c-.3 5.7-2.6 10.2-7.3 13.3-2.3 1.5-4.6 2.9-7 4.2-2.2 1.2-4.4 2.2-6.7 3.3-1.6.8-3.1 1.6-4.6 2.6-7.9 5.3-11.7 12.6-10.8 22.3.6 5.8 1.8 11.5 3.4 17.1.2.9.5 1.7.7 2.6.2.9-.2 1.7-1.1 1.9-.6.1-1.4-.2-1.9-.6-.4-.3-.7-.9-.9-1.4-5.1-11-9.5-22.3-12.6-34.1-.9-3.4-1.4-6.9-1.1-10.5.6-5.3 2.8-9.8 6.3-13.7 3.6-4.1 8-7.1 12.7-9.7 2.4-1.3 4.8-2.5 7.2-3.7 1.1-.5 2.1-1.1 3.2-1.7 6.2-3.5 9.5-8.8 10.3-15.8.8-7.3.8-14.7.1-22-.7-8.7-1.8-17.3-2.8-26-.2-1.8-.5-3.6-.6-5.4v-.5c0-2 .5-3.9.8-6.2 2.8 3.5 2.8 7.3 3.3 11 .4 3.1.8 6.1 1.2 9.2.7 5.7 1.5 11.5 2.3 17.2 1.3 8.5 3 17 4.4 25.5 1.4 6.9 1.8 14 1.5 21.1z" style="fill:url(#SVGID_00000150089846909952874780000016381336708528416403_)"/>
  <pattern xlink:href="#Hachure_N2" id="SVGID_00000034057230570128765530000008817405420174261930_" patternTransform="scale(.5) rotate(45 -6760.91 -22630.328)"/>
  <path d="M146.5 362.8c-1.9-.7-1.8-2.3-1.2-3.9 1.5-4.5 3-8.9 4.6-13.3 2.1-5.5 5.6-10 9.7-14.2 1.8-1.8 3.9-2.6 6.3-2.1 1.9.4 3.9.9 5.7 1.8 6.8 3.5 13.2 7.5 18.5 13.1 1.5 1.6 2.9 3.4 4.3 5.2.2.2.2.6.3 1-1.9.5-3.5-.2-5-1.1-4.2-2.4-8.4-4.9-12.7-7.2-3.6-1.9-7.4-3.1-11.5-3.1-4.8 0-8.2 2.2-10.3 6.5-.3.5-.5 1-.7 1.5-1.4 4.9-2.8 9.8-4 14.8-.7 3.1-.4 6.2.1 9.3 1.1 7.3 2.4 14.7 3.5 22 1.1 7.4 4.2 13.9 7.8 20.2.4.6.9 1.2 1 1.9.1.5 0 1.4-.4 1.6-.4.3-1.2.1-1.7-.1-.4-.2-.7-.7-1-1-3.7-4.5-6.2-9.5-7.7-15-1.2-4.8-2.7-9.5-3.9-14.3-1.6-6.9-2.4-13.9-1.8-20.9.2-.9.1-1.7.1-2.7z" style="fill:url(#SVGID_00000034057230570128765530000008817405420174261930_)"/>
  <pattern xlink:href="#Nouveau_motif_4" id="SVGID_00000007403271458339965230000003932959075430136961_" patternTransform="scale(.2) rotate(45 3299.006 -69689.74)"/>
  <path d="M408.7 421.2c-.1.6-.6 1.6-1.2 1.8-2.4 1.1-4.8 2.1-7.3 2.9-5.4 1.8-10.8 3.5-16.2 5.1-1.8.5-3.7.8-4.9 1.1-4.4-.2-7.8-1.3-10.5-3.9-3.5-3.3-3.8-7.9-.9-11.6 3.3-4.1 9.7-7.3 16.1-5.4 2.9.9 5.8 1.8 8.6 2.8 5 1.9 10 3.8 14.9 5.8.6.3 1.4 1 1.4 1.4z" style="fill:url(#SVGID_00000007403271458339965230000003932959075430136961_)"/>
  <pattern xlink:href="#Hachure_N2" id="SVGID_00000086649948453653518730000009225864286877695880_" patternTransform="scale(.5) rotate(45 -6760.91 -22630.328)"/>
  <path d="M417.4 329.9c.2-.1.5-.2.7-.2.4-.1.7-.3.9-.7.2-.4.4-.8.6-1.1-.8.5-1.5 1.2-2.2 2zm5.6-4.6c.1 0 .2-.1.3-.1.7-.2 1.4-.5 1.8-1.1-.8.3-1.5.7-2.1 1.2zm15.8-5.8c-.8.1-1.6.3-2.3.5h.5c.8 0 1.5-.1 2.1-.5h-.3zm16.4 2.4c-.8-1.5-2-1.9-3.7-2.2 1.2.6 2.4 1.4 3.4 2.4.3.4.5.8.6 1.4.3.6.5 1.2.6 1.8-.2-1.3-.5-2.6-.9-3.4z" style="fill:url(#SVGID_00000086649948453653518730000009225864286877695880_)"/>
  <pattern xlink:href="#Hachure_N0" id="SVGID_00000074426398731366378110000009294784073323548040_" patternTransform="scale(.5) rotate(45 -6734.681 -22641.193)"/>
  <path d="M445.9 335.9c-.3.3-.6.6-.9.8.3-.2.7-.5.9-.8z" style="fill:url(#SVGID_00000074426398731366378110000009294784073323548040_)"/>
  <pattern xlink:href="#Hachure_N0" id="SVGID_00000025418106210414688130000016184600282061845172_" patternTransform="scale(.5) rotate(45 -6734.681 -22641.193)"/>
  <path d="M456 325.3c-.1-.6-.3-1.2-.6-1.8 0-.5-.2-1-.6-1.4-1-1-2.1-1.8-3.4-2.4-.5-.1-1.1-.2-1.6-.3-3.5-.7-7.1-.5-10.6 0-.6.4-1.4.5-2.1.5h-.5c-4.1.8-7.9 2.1-11.4 4.1-.4.7-1.1 1-1.8 1.1-.1 0-.2.1-.3.1-1.2.8-2.3 1.6-3.4 2.5-.2.4-.5.7-.6 1.1-.2.4-.4.6-.9.7-.2 0-.5.1-.7.2-.3.3-.6.7-.9 1-.2.3-.5.6-.8.9-.6.7-.9 1.5-.6 2.5.5 1.3 1.8 1.4 3 1.6h.2c3.9.6 7.7 1.2 11.6 1.9 3.4.6 6.9 1.2 10.4 1.8 2.5-.1 6 0 8.3-.8.6-.2 1.2-.7 1.7-.9.7-.3.4-.4 1-.8l.7-.5c2.1-1.6 2.6-4.1 3.6-6.6 0-.1.1-.2.1-.4.2-1.2.3-2.7.2-4.1zm-11 11.5c.3-.2.6-.5.9-.8-.2.2-.6.5-.9.8z" style="fill:url(#SVGID_00000025418106210414688130000016184600282061845172_)"/>
  <pattern xlink:href="#Hachure_N0" id="SVGID_00000018222910249003496200000002964620921525201597_" patternTransform="scale(.5) rotate(45 -6734.681 -22641.193)"/>
  <path d="M445 336.8c.3-.2.6-.5.9-.8-.2.2-.6.5-.9.8z" style="fill:url(#SVGID_00000018222910249003496200000002964620921525201597_)"/>
  <pattern xlink:href="#Hachure_N2" id="SVGID_00000157273606415094259200000010404501470053889463_" patternTransform="scale(.5) rotate(45 -6760.91 -22630.328)"/>
  <path d="M200.2 402.8c-.9 2.7-1.9 5.4-2.9 8.1-.3.8-.9 1.3-1.8 1.3s-1.4-.6-1.7-1.4c-.1-.4-.2-.8-.3-1.1.5.7 1.2 1.2 2.2 1.5.8-1.7.4-3.4.1-5-1.3-6.6-4.1-12.1-11.4-13.8l-.9-.3c-3.1-1-4.9-3.1-5.4-6.4-.9-5.9 0-11.5 2.7-16.8 1.2-2.3 2.5-4.4 3.8-6.7.2-.4.4-.8.6-1.3.1-.1.3-.2.4-.2-.2 1.6-.4 2.7-.6 3.7-.5 2.7-1.4 5.5-1.6 8.2-.4 4.4.9 6 5.2 7.4.9.3 1.8.6 2.8.8 6.1 1.9 9.3 5.8 9.8 12.2.1 3.3 0 6.6-1 9.8z" style="fill:url(#SVGID_00000157273606415094259200000010404501470053889463_)"/>
  <pattern xlink:href="#Hachure_N2" id="SVGID_00000150061511600940122210000007775538813658955423_" patternTransform="scale(.5) rotate(45 -6760.91 -22630.328)"/>
  <path d="M164.6 350.3c5.7-1.4 10.2.4 14.4 2.9.4.2.8.5 1.1.9 1.1 1.1 1 2.4-.5 3.1-.4.2-.9.3-1.3.5-1.3.5-2.7 1-4 1.6-7.7 3.2-12.9 8.7-14.8 17-.3 1.3-.7 2.6-1.1 3.9-.2.6-.5 1.2-1.1 1.7-1.5-2.9-.3-5.7 0-8.7-1.6-1-1.7-2.7-1.6-4.5.3-5.2.7-10.4 2.1-15.4.6-2.2 1.4-4.5 2.5-6.4 2.1-3.7 5.5-5.2 9.7-4.6.8.1 1.6.2 2.3.7.5.3.9 1.1.9 1.7 0 .4-.7.9-1.2 1.2-.3.2-.8.1-1.2.1-2.8-.2-4.5 1.6-6.2 4.3z" style="fill:url(#SVGID_00000150061511600940122210000007775538813658955423_)"/>
  <pattern xlink:href="#Nouveau_motif_4" id="SVGID_00000113318476711293978250000016365222689605833620_" patternTransform="scale(.2) rotate(45 3299.006 -69689.74)"/>
  <path d="M409.6 329.1h-.7c-.2 0-.4-.1-.6-.2-.2-.1-.4-.2-.5-.4v.1-.1c-.2-.2-.5-.5-.7-.9-.8-1.4-1.5-2.9-2.4-4.2-3.2-4.6-7.7-5.3-12.2-1.9-1.7 1.3-3.3 2.7-5 4.1.5-3.7 2.8-5.9 5.4-8-.6-2.4-.4-3 1.7-4 3.4-1.5 6.9-2.2 10.5-.9 1.3.5 2.6 1.3 3.6 2.2.7.6 1.3 1.7 1.2 2.5-.1.7-.1 1.3.1 1.9.2.7.4 1.4.5 2.1.3 1.7.5 3.5.6 5.2.1 1.2-.3 2.2-1.5 2.5z" style="fill:url(#SVGID_00000113318476711293978250000016365222689605833620_)"/>
  <pattern xlink:href="#Hachure_N2" id="SVGID_00000066497817317062094340000011011419320597122440_" patternTransform="scale(.5) rotate(45 -6760.91 -22630.328)"/>
  <path d="M409 329.2c-.5 0-.8-.2-1.1-.5v-.1c.2.2.3.3.5.4.2.1.3.2.6.2z" style="fill:url(#SVGID_00000066497817317062094340000011011419320597122440_)"/>
  <g id="Oeil_gauche" class="yeux">
    <path d="M319.5 328c0-6.3 5.3-9.8 10.2-10 5.5-.3 10.1 4.5 10 10-.1 5.5-4.5 9.9-10.1 10-5.7 0-10.1-4.4-10.1-10z" class="st37"/>
    <path d="M334.8 327.9c0 1.8-1.4 3.3-3.1 3.3-1.9 0-3.6-1.7-3.5-3.7.1-1.9 1.7-3.4 3.4-3.3 1.8 0 3.3 1.7 3.2 3.7z" class="st38"/>
  </g>
  <g id="Oeil_droit" class="yeux">
    <path d="M448.6 329.7c0 4.9-4.1 9-9 9-4.9.1-9.1-4-9.1-8.9 0-5.6 5-8.9 9.2-9.1 4.8-.3 8.9 4.1 8.9 9z" class="st37"/>
    <path d="M444.5 329.9c0 1.9-1.8 3.3-4 3.3-1.4 0-2.6-1.6-2.6-3.5 0-2 1.2-3.3 3-3.2 1.9.1 3.6 1.7 3.6 3.4z" class="st38"/>
  </g>
  <pattern xlink:href="#Hachure_N0" id="SVGID_00000180350355423751618870000018200660614393698476_" patternTransform="scale(.5) rotate(45 -6734.681 -22641.193)"/>
  <path d="M397.2 489.8h-.7c.8.1 1.4.5 1.9 1.2.8 1.1.3 2-.3 3.1s-1.3 2.2-2.1 3.1c0 .1-.1.1-.2.2.6-.5 1.1-1 1.5-1.6.6-.8 1.3-1.7 1.6-2.6.8-1.8-.1-3.3-1.7-3.4zM358.7 330c-1.4-.7-1.9-2.1-2.7-3.3-4.8-7.2-11.2-10.6-18.8-11.3-2.1-.2-4.2-.2-6.4 0-.3 0-.7.1-1.1.1-3.9.4-7.7 1.7-11.2 3.4 2-.6 4.1-1.1 6.1-1.5 5.2-1.1 9.9-.7 14.4 2.5 1.7 1.2 3.7 2 5.5 2.9 2 1 3.6 2.1 3.6 4.6.4.1.5.1.6.2 1.4.1 2.8.3 3.2 1.9.2.7.1 1.3-.2 1.9.7-.2 1.5-.3 2.2-.4h1.4c.8 0 1.5.1 2.3.3.4.1.9.1 1.5.2h.1c-.2-.7-.2-1.3-.5-1.5zm0 0c-1.4-.7-1.9-2.1-2.7-3.3-4.8-7.2-11.2-10.6-18.8-11.3-2.1-.2-4.2-.2-6.4 0-.3 0-.7.1-1.1.1-3.9.4-7.7 1.7-11.2 3.4 2-.6 4.1-1.1 6.1-1.5 5.2-1.1 9.9-.7 14.4 2.5 1.7 1.2 3.7 2 5.5 2.9 2 1 3.6 2.1 3.6 4.6.4.1.5.1.6.2 1.4.1 2.8.3 3.2 1.9.2.7.1 1.3-.2 1.9.7-.2 1.5-.3 2.2-.4h1.4c.8 0 1.5.1 2.3.3.4.1.9.1 1.5.2h.1c-.2-.7-.2-1.3-.5-1.5zm0 0c-1.4-.7-1.9-2.1-2.7-3.3-4.8-7.2-11.2-10.6-18.8-11.3-2.1-.2-4.2-.2-6.4 0-.3 0-.7.1-1.1.1-3.9.4-7.7 1.7-11.2 3.4 2-.6 4.1-1.1 6.1-1.5 5.2-1.1 9.9-.7 14.4 2.5 1.7 1.2 3.7 2 5.5 2.9 2 1 3.6 2.1 3.6 4.6.4.1.5.1.6.2 1.4.1 2.8.3 3.2 1.9.2.7.1 1.3-.2 1.9.7-.2 1.5-.3 2.2-.4h1.4c.8 0 1.5.1 2.3.3.4.1.9.1 1.5.2h.1c-.2-.7-.2-1.3-.5-1.5zm38.5 159.8h-.7c.8.1 1.4.5 1.9 1.2.8 1.1.3 2-.3 3.1s-1.3 2.2-2.1 3.1c0 .1-.1.1-.2.2.6-.5 1.1-1 1.5-1.6.6-.8 1.3-1.7 1.6-2.6.8-1.8-.1-3.3-1.7-3.4zM358.7 330c-1.4-.7-1.9-2.1-2.7-3.3-4.8-7.2-11.2-10.6-18.8-11.3-2.1-.2-4.2-.2-6.4 0-.3 0-.7.1-1.1.1-3.9.4-7.7 1.7-11.2 3.4 2-.6 4.1-1.1 6.1-1.5 5.2-1.1 9.9-.7 14.4 2.5 1.7 1.2 3.7 2 5.5 2.9 2 1 3.6 2.1 3.6 4.6.4.1.5.1.6.2 1.4.1 2.8.3 3.2 1.9.2.7.1 1.3-.2 1.9.7-.2 1.5-.3 2.2-.4h1.4c.8 0 1.5.1 2.3.3.4.1.9.1 1.5.2h.1c-.2-.7-.2-1.3-.5-1.5zm0 0c-1.4-.7-1.9-2.1-2.7-3.3-4.8-7.2-11.2-10.6-18.8-11.3-2.1-.2-4.2-.2-6.4 0-.3 0-.7.1-1.1.1-3.9.4-7.7 1.7-11.2 3.4 2-.6 4.1-1.1 6.1-1.5 5.2-1.1 9.9-.7 14.4 2.5 1.7 1.2 3.7 2 5.5 2.9 2 1 3.6 2.1 3.6 4.6.4.1.5.1.6.2 1.4.1 2.8.3 3.2 1.9.2.7.1 1.3-.2 1.9.7-.2 1.5-.3 2.2-.4h1.4c.8 0 1.5.1 2.3.3.4.1.9.1 1.5.2h.1c-.2-.7-.2-1.3-.5-1.5zm0 0c-1.4-.7-1.9-2.1-2.7-3.3-4.8-7.2-11.2-10.6-18.8-11.3-2.1-.2-4.2-.2-6.4 0-.3 0-.7.1-1.1.1-3.9.4-7.7 1.7-11.2 3.4 2-.6 4.1-1.1 6.1-1.5 5.2-1.1 9.9-.7 14.4 2.5 1.7 1.2 3.7 2 5.5 2.9 2 1 3.6 2.1 3.6 4.6.4.1.5.1.6.2 1.4.1 2.8.3 3.2 1.9.2.7.1 1.3-.2 1.9.7-.2 1.5-.3 2.2-.4h1.4c.8 0 1.5.1 2.3.3.4.1.9.1 1.5.2h.1c-.2-.7-.2-1.3-.5-1.5zm0 0c-1.4-.7-1.9-2.1-2.7-3.3-4.8-7.2-11.2-10.6-18.8-11.3-2.1-.2-4.2-.2-6.4 0-.3 0-.7.1-1.1.1-3.9.4-7.7 1.7-11.2 3.4 2-.6 4.1-1.1 6.1-1.5 5.2-1.1 9.9-.7 14.4 2.5 1.7 1.2 3.7 2 5.5 2.9 2 1 3.6 2.1 3.6 4.6.4.1.5.1.6.2 1.4.1 2.8.3 3.2 1.9.2.7.1 1.3-.2 1.9.7-.2 1.5-.3 2.2-.4h1.4c.8 0 1.5.1 2.3.3.4.1.9.1 1.5.2h.1c-.2-.7-.2-1.3-.5-1.5zm0 0c-1.4-.7-1.9-2.1-2.7-3.3-4.8-7.2-11.2-10.6-18.8-11.3-2.1-.2-4.2-.2-6.4 0-.3 0-.7.1-1.1.1-3.9.4-7.7 1.7-11.2 3.4 2-.6 4.1-1.1 6.1-1.5 5.2-1.1 9.9-.7 14.4 2.5 1.7 1.2 3.7 2 5.5 2.9 2 1 3.6 2.1 3.6 4.6.4.1.5.1.6.2 1.4.1 2.8.3 3.2 1.9.2.7.1 1.3-.2 1.9.7-.2 1.5-.3 2.2-.4h1.4c.8 0 1.5.1 2.3.3.4.1.9.1 1.5.2h.1c-.2-.7-.2-1.3-.5-1.5zm-49.4 6c-.8-1.2-1.8-1.4-3-1.3-2.4 0-4.8 0-7.2-.1 5.9 2 12 3.2 18.2 4.3-1.8-.4-3.6-.8-5.4-1.4-.9-.4-2.1-.8-2.6-1.5zm123.9-66.1c-.3-1.3-.6-2.6-1-3.9-.6-2-1.2-3.9-2-5.8-1.2-2.9-2.1-6-3.1-8.9-1-2.8-1.9-5.7-2.7-8.6-.7-2.4-1.4-4.8-1.7-7.4-.6-1.2-.4-2.5-.7-3.7-.3-1.2 0-2.6-.3-3.8-.5-2.2-.3-4.4-.4-6.6-.1-.9-.3-1.7-.4-2.6-.1-.9.1-1.8-.1-2.6-.4-1.7-.7-3.4-1.3-5-.9-2.9-2-5.7-3.2-8.4-.6-1.3-1.4-2.5-2.1-3.7-1.7-3-3.5-5.9-5.2-8.8-1-1.8-2-3.6-2.9-5.5-1.1-.7-2.3-1.3-3.4-1.9-.9-.4-2.1-.5-2.5.6-.5 1.4-1.6 1.3-2.7 1.6-1.2.2-2.4.4-3.5.7-2.1.6-4.1.3-6-.8-1.7-1-3.3-2-5-2.9-8.9-4.7-18.3-6.9-28.4-5.2-4.1.7-8.2 1.6-12.3 2-4.4.5 5.8-14.7 1.4-14.3-4.4.4 5.9-5.4 1.8-7.1-4.7-1.9-38.6 17.2-43.7 17.3-2.1 0-4.4 0-6.4-.5-3.9-.9-7.7-2-11.5-3.3-3.9-1.3-7.6-1.6-11.5-.2-1.2.5-2.4.8-3.6 1.3-24.8 11-42.4 28.8-50.6 55-2.3 7.5-3.5 15.3-2.7 23.2.6 5.8 1.9 11.3 4.2 16.7.3.7.6 1.6.4 2.2-.6 2.1-1.3 4.1-2.2 6.1-1.3 2.8-2.8 5.4-4.2 8.1-1.7 3.3-3.1 6.8-3.9 10.5-1.3 6.5-2.3 13.1-2.8 19.7-.2 2.3-.3 4.6-.4 7-.1 2.9-.1 5.7 0 8.6.4 13 1.1 26 1.5 39.1.3 10.9.9 21.8 1.9 32.7 1.5.3 2.2 1.2 2.7 2.5 1.3 3.3 2.6 6.6 4 9.8 1.1 2.3 2.4 4.5 3.7 6.7 2.6 4.2 6.1 7.5 10.4 10.1 2.7 1.6 5.4 3.5 7.8 5.6 4.3 3.7 6.4 8.7 6.9 14.3.3 3.8.5 7.5.8 11.2.3 4.2 2.1 7.7 4.9 10.7 1.6 1.7 3.3 3.3 5.1 4.8 6.6 5.4 13.9 9.7 21.6 13.2 1 .4 1.9.7 2.9 1.1 1.4.6 2.8.9 4.2 1.1.9.1 1.9.1 2.8 0 1.5-.2 3-.6 4.6-1.2 3-1.3 6.2-2.2 9.3-3 .4-.1.9-.2 1.3-.2h.7c1.9.1 3.3 1.3 4 3.5.8 2.5 1.3 5.1 1.4 7.7.2 3.4 1.3 6.2 3.8 8.5 1.5 1.4 3 2.9 4.7 4.1 10 7 20 14.1 30.1 21 3.8 2.6 7.9 4.8 12.5 6 1.7.4 3.3.7 5 .8 2 .2 3.9.2 5.9 0 3-.2 5.9-.8 8.8-1.5 3.1-.8 6-2.1 9-3.2 4.3-1.7 6.5-5 7.4-9.3.6-2.6.6-5.2.1-7.9-.7-3.7-2.8-6.3-6.2-8-1.4-.7-2.7-1.6-3.9-2.6-1-.9-1.2-1.6-.5-2.4h-.1c-2.3.6-4.8 1-7.5 1.1-2.7-.4-5.3-.7-8-1.2-.8-.1-1.6-.5-2.2-1-.4-.3-.7-1.1-.7-1.6 0-.3.8-.7 1.3-.8 1.5-.2 3-.5 4.5-.5 2.6 0 5.1-.5 7.3-1.5-.4.1-.7.1-1.1.1h-2c-1-.1-2.1-.3-3.1-.6-3.1-.9-6.4-1.8-9.2-3.3-5-2.6-9.8-5.7-14.6-8.7-2.9-1.8-4.9-4.6-6.5-7.5-.2-.4-.5-.9-.6-1.3-.3-1.3.1-1.8 1.5-2.1.3-.1.7-.2 1-.3-.3-.2-.6-.3-1-.3h-.7c-.3 0-.6.1-.9.1h-.8c-.4 0-.8-.2-1.2-.5.7-.3 1.2-.6 1.8-.8 8.4-3.3 16.8-6.6 25.2-9.8 4.3-1.7 8.7-3.2 13-4.8 1-.4 2-.6 3-.7h1.6c1.5.1 3.1.5 4.5 1.2 2.1 1.1 4.3 1.7 6.4 2 1.4.2 2.8.2 4.2 0 2.1-.2 4.2-.8 6.3-1.6 1.8-.7 3.6-1.3 5.4-1.9-.1 0-.1-.1-.2-.1-1-.9-1.9-1.9-2.6-3.1-.4-.8-.8-1.6-1-2.4.2.8.3 1.5.4 2.3.1 1.3-.3 2.6-1.6 3.2-1.3.6-2.5.4-3.6-.5-1.9-1.5-2.8-3.5-2.9-5.8v-1.9h.2c-.2-1.3-.3-2.7-.4-4-.3-2.4.4-4.1 1.9-4.4 1.2-.3 2.8 1.1 3.5 3.1.7 2.1 1.4 4.3 2.1 6.4-.2-.8-.3-1.5-.4-2.3-.4-3.2-1.6-6.1-3.9-8.5-1.2-1.2-2.3-2.5-3.3-3.8-.7-.9-.4-2 .6-2.6.4-.2 2.7-.8 3.4-.9 3.7-.6 6-.8 9.6-2.7h.1c1.7-1.3 3.3-2.8 4.7-4.5 3.8-4.8 6.7-10.1 8.3-16.1.5-1.8.8-3.5.8-5.2-.3-1.1-.6-2.2-1-3.2s-.7-2.1-1.2-3.1c-.8-1.8-1.6-3.6-2.5-5.4-3.4-7.5-7.1-14.7-10.8-22-1.3-2.6-2.4-5.3-3-8.2-1-2.1-.9-4.5-1.8-6.6 0-1.5-.7-2.8-.6-4.2-.8-3.3-.4-6.7-.5-10 0-3.4 0-6.7.1-10.1 0-.7.2-1.5.4-2.2v-.1c-.2-.2-.5-.5-.7-.9-.8-1.4-1.5-2.9-2.4-4.2-3.2-4.6-7.7-5.3-12.2-1.9-1.7 1.3-3.3 2.7-5 4.1.5-3.7 2.8-5.9 5.4-8-.6-2.4-.4-3 1.7-4 3.4-1.5 6.9-2.2 10.5-.9 1.3.5 2.6 1.3 3.6 2.2.7.6 1.3 1.7 1.2 2.5-.1.7-.1 1.3.1 1.9.2.7.4 1.4.5 2.1.3 1.7.5 3.5.6 5.2.1 1.1-.3 2.1-1.6 2.4h-.3.3c1.2-.3 1.6-1.3 1.6-2.4-.1-1.7-.3-3.5-.6-5.2-.1-.7-.4-1.4-.5-2.1.9-2.1 1.9-4.1 3.2-6 1.1-1.6 2.3-3 3.5-4.5 1.5-2 3.1-3.8 4.5-5.9.1-.2.2-.4.4-.6 1.1-1.8 2.1-3.7 2.7-5.8.3-1.1.6-2.3.8-3.4.4-2.4 1-4.8 1.9-7 .7-1.6 1.5-3.2 2.3-4.7 1.5-2.6 2.7-5.4 3.5-8.3.9-1.5 1.1-2.6.8-3.7zm-93.5 20.6c1 .1 1.8.4 2.1 1.3.2.5.1.8 0 1.2-.2.4-.5.8-.9 1.1-.8.7-1.7 1.2-2.4 2-.9.8-1.7 1.7-2.3 2.7-1 1.5-.6 3 1 3.8 1.1.6 2.4.9 3.6 1.1 4.1.8 7.9 2.1 10.9 5 4.1 4 7.1 8.7 8 14.4.4 2.4 1.4 4.3 2.8 6.2l2.4 3.3c-.3-.6-.6-1.2-.9-1.7-1.4-3-2.7-6.2-3.7-9.3-1.5-4.6-3.2-9-6.1-13-.7-1-1.4-2.2-1.9-3.3-1-2.1-.1-3.8 2.2-4.3.7-.1 1.4-.1 2.1 0 2 .4 3.7 1.4 5.2 2.8 2.9 2.7 4.9 5.9 6.2 9.6 2.5 7.5 4.3 15.2 3.8 23.3-.1 1.9 0 3.8 0 6-.1 0-.2-.1-.3-.1 0 .2-.1.5-.4.7-.1.1-.3.1-.5.1h-.4c-.3 0-.6-.1-.8-.2-1.3-.5-2.7-1-4.2-1h-1.1c-1.6 4.2-4.8 6.9-8.3 9.3-2.2 1.4-3.7 3.5-4.9 5.8-.8 1.5-1.6 3.1-2.6 4.6-1.6 2.4-3.6 3.8-5.8 4-.6.1-1.2.1-1.8 0-.9-.1-1.8-.3-2.8-.6-3.7-1.3-6.8-3.4-9.4-6.4-2.2-2.6-4.4-5.1-6.5-7.7-2.9-3.4-6.5-5.3-10.8-6.1-3-.6-5.9-1.2-8.9-2-3.9-1-7.2-3.1-9.7-6.3-.3-.4-.7-.7-.8-1.2-.2-.7-.5-1.6-.3-2.2.2-.5.6-.7 1-.8h.4c.3 0 .6.1.9.2.5.2 1 .3 1.5.5-.3-.4-.5-.8-.6-1.4-.2-1.1.3-2.1 1.3-2.7l3.9-2.4c.2-.1.4-.3.7-.4-.9-.5-1.4-1.6-1.7-3.6-.4-3.3.5-6.4 2.2-9.1 1.2-1.9 2.6-3.7 3.9-5.5 1.9-2.6 1.9-3.6.1-6.3-.3-.4-.6-.8-.8-1.2-.1-.2-.3-.4-.4-.6-1.4-2.1-1.1-3.3 1.4-4.1 2-.7 4.1-1.4 6.2-1.8 7.5-1.6 15-2.9 22.6-3.5 1.1-.1 2.1-.2 3.2-.2.8-.1 1.7-.1 2.4 0zm-96.8-5.6c.1-2.5.6-5.1 1-7.6.1-.6.3-1.3.5-1.8 3.4-8.7 7.9-16.7 14.4-23.6 6.5-6.9 12.9-13.8 19.1-20.9 6.2-7.2 13.9-11.3 23.3-12.5 3.7-.5 7.3-.4 10.9.6 4 1.1 7 3.3 9.2 6.8 3.1 5 4.3 10.4 4.7 16.2.2 2.5.3 5.1.4 7.7.1 6 2.7 10.9 6.2 15.5l1.2 1.5c1.7 2.2 1.7 2.8 0 5-1.1 1.5-2.7 2.3-4.4 2.7-2.2.5-4.4.9-6.6 1-2.7.2-5.4 0-8.1 0-9.2-.3-18.3.8-27.3 3.2-10.1 2.7-21.5 7.5-29.5 14-2.1 1.7-1.5 3.8-3.7 5.4-2.7 2-5.6 1.6-8.4.4-1.5-.7-2.4-2.1-2.5-3.6-.4-3.3-.5-6.7-.4-10zm22.7 20.4c0-.2-.1-.4-.1-.5 7.2-1.6 14.5-3.2 22-4.2-.8 2.6-1.5 5-2.2 7.5-1.2-2.2 0-4 .6-6.2-6.9 1.1-13.6 2.2-20.3 3.4zm50.8 161c-1.5 4.3-4 7.8-7.3 10.8-5.2 4.5-11.1 6-17.9 4.5-3.8-.9-7.3-2.4-10.5-4.5-7.7-4.8-13.9-11-18.5-18.8-6-10.2-9.7-21.2-10.7-33-.3-3.4-1-6.6-2.1-9.8-2.7-7.8-5.3-15.6-7.8-23.4-.9-2.7-1.3-5.6-1.9-8.4-.2-.9-.2-1.9-.3-2.9 0-7.6 5.1-12.6 12.9-12.8 3.6-.1 7 .7 10.2 2.2 3.2 1.4 6.3 3 9.4 4.7 4.3 2.4 8.6 4.9 12.9 7.4 8.3 4.7 17.2 7.8 26.7 8.6 1.1.1 2.2.3 3.3.6 6.4 1.9 12.6 4.3 18.4 7.5 6.4 3.5 8.4 8.9 6.7 16.1-.8 3.5-2.3 6.6-4.2 9.6l-6.3 9.9c-5.1 8-9.1 16.5-11.3 25.8-.4 2-1.1 3.9-1.7 5.9zm75.6-29.4c-.1.5.1 1.4-.3 2.4-.4.8-.1 1.9-.4 2.8-.4 1.1-.4 2.3-.6 3.5-.4 2.1-1.1 4-1.9 5.8-.4.8-.9 1.3-1.6 1.8-.4.3-1.4.3-1.8-.1l-1.2-1.2c-.6-.6-1.3-.7-2-.4-.6.2-1.1.6-1.6 1-1.2.8-2.3 1.7-3.5 2.5-2.6 1.8-5.4 3.2-8.4 4.3-8.7 3.1-17.5 5.8-26.2 8.9-2.4.8-4.8 1.6-7.1 2.5-1.4.5-2.8 1.2-4 2-2.4 1.5-4.9 3-7.1 4.7-.4.3-.9.7-1.2 1.1l-3.4 3.4c-.3.3-.6.9-1.2.6-.5-.3-.3-.9-.2-1.3.1-.8.3-1.5.5-2.3.4-1.4.8-2.7 1.2-4.1.6-1.7.9-3.5 1.6-5.2 1.1-2.9 2-5.8 3.4-8.6 1.6-3.1 3.4-5.9 6.1-8.2 2.1-1.8 4.4-3.4 6.8-4.7 2.1-1.1 4.2-2.2 6.4-3.2 1.1-.5 2.3-1.1 3.5-1.5 2.1-.8 4.2-1.5 6.3-2.1 2.2-.7 4.4-1.3 6.6-1.8 1.2-.3 2.4-.7 3.6-1 1.8-.4 3.7-.8 5.5-1.3 2-.6 4-.7 6-1.4 2.2-.1 4.3-1.1 6.5-1.1 1.2-.6 2.5-.3 3.7-.7 1.1-.4 2.3-.6 3.4-1 1.2-.4 2.5.4 2.7 1.6 0 .6-.1 1.2-.1 2.3zm.5-22.9c5 1.9 10 3.8 14.9 5.8.6.2 1.4.9 1.4 1.4-.1.6-.6 1.6-1.2 1.8-2.4 1.1-4.8 2.1-7.3 2.9-5.4 1.8-10.8 3.5-16.2 5.1-1.8.5-3.7.8-4.9 1.1h-.1c-.5 0-1 0-1.6-.1-3.7-.4-6.5-1.5-8.9-3.8-3.5-3.3-3.8-7.9-.9-11.6 2.4-3.1 6.6-5.6 11.2-5.9h1.8c1 .1 2 .2 3 .6 3.1.8 6 1.7 8.8 2.7zm4.7 75.8h-.7c.8.1 1.4.5 1.9 1.2.8 1.1.3 2-.3 3.1s-1.3 2.2-2.1 3.1c.5-.4.9-.9 1.3-1.4.6-.8 1.3-1.7 1.6-2.6.7-1.8-.1-3.2-1.7-3.4zm-66.3-174.5c-.3 0-.7.1-1.1.1-3.9.4-7.7 1.7-11.2 3.4 2-.6 4.1-1.1 6.1-1.5 5.2-1.1 9.9-.7 14.4 2.5 1.7 1.2 3.7 2 5.5 2.9 2 1 3.6 2.1 3.6 4.6.4.1.5.1.6.2 1.4.1 2.8.3 3.2 1.9.2.7.1 1.3-.2 1.9.7-.2 1.5-.3 2.2-.4h1.4c.8 0 1.5.1 2.3.3.4.1.9.1 1.5.2h.1c-.2-.6-.3-1.3-.6-1.4-1.4-.7-1.9-2.1-2.7-3.3-4.8-7.2-11.2-10.6-18.8-11.3-2-.2-4.1-.2-6.3-.1zM309.3 336c-.8-1.2-1.8-1.4-3-1.3-2.4 0-4.8 0-7.2-.1 5.9 2 12 3.2 18.2 4.3-1.8-.4-3.6-.8-5.4-1.4-.9-.4-2.1-.8-2.6-1.5zm49.4-6c-1.4-.7-1.9-2.1-2.7-3.3-4.8-7.2-11.2-10.6-18.8-11.3-2.1-.2-4.2-.2-6.4 0-.3 0-.7.1-1.1.1-3.9.4-7.7 1.7-11.2 3.4 2-.6 4.1-1.1 6.1-1.5 5.2-1.1 9.9-.7 14.4 2.5 1.7 1.2 3.7 2 5.5 2.9 2 1 3.6 2.1 3.6 4.6.4.1.5.1.6.2 1.4.1 2.8.3 3.2 1.9.2.7.1 1.3-.2 1.9.7-.2 1.5-.3 2.2-.4h1.4c.8 0 1.5.1 2.3.3.4.1.9.1 1.5.2h.1c-.2-.7-.2-1.3-.5-1.5zm0 0c-1.4-.7-1.9-2.1-2.7-3.3-4.8-7.2-11.2-10.6-18.8-11.3-2.1-.2-4.2-.2-6.4 0-.3 0-.7.1-1.1.1-3.9.4-7.7 1.7-11.2 3.4 2-.6 4.1-1.1 6.1-1.5 5.2-1.1 9.9-.7 14.4 2.5 1.7 1.2 3.7 2 5.5 2.9 2 1 3.6 2.1 3.6 4.6.4.1.5.1.6.2 1.4.1 2.8.3 3.2 1.9.2.7.1 1.3-.2 1.9.7-.2 1.5-.3 2.2-.4h1.4c.8 0 1.5.1 2.3.3.4.1.9.1 1.5.2h.1c-.2-.7-.2-1.3-.5-1.5zm-46.8 7.5-12.8-2.9c5.9 2 12 3.2 18.2 4.3-1.8-.4-3.6-.9-5.4-1.4zm46.8-7.5c-1.4-.7-1.9-2.1-2.7-3.3-4.8-7.2-11.2-10.6-18.8-11.3-2.1-.2-4.2-.2-6.4 0-.3 0-.7.1-1.1.1-3.9.4-7.7 1.7-11.2 3.4 2-.6 4.1-1.1 6.1-1.5 5.2-1.1 9.9-.7 14.4 2.5 1.7 1.2 3.7 2 5.5 2.9 2 1 3.6 2.1 3.6 4.6.4.1.5.1.6.2 1.4.1 2.8.3 3.2 1.9.2.7.1 1.3-.2 1.9.7-.2 1.5-.3 2.2-.4h1.4c.8 0 1.5.1 2.3.3.4.1.9.1 1.5.2h.1c-.2-.7-.2-1.3-.5-1.5zm38.5 159.8h-.7c.8.1 1.4.5 1.9 1.2.8 1.1.3 2-.3 3.1s-1.3 2.2-2.1 3.1c0 .1-.1.1-.2.2.6-.5 1.1-1 1.5-1.6.6-.8 1.3-1.7 1.6-2.6.8-1.8-.1-3.3-1.7-3.4zM358.7 330c-1.4-.7-1.9-2.1-2.7-3.3-4.8-7.2-11.2-10.6-18.8-11.3-2.1-.2-4.2-.2-6.4 0-.3 0-.7.1-1.1.1-3.9.4-7.7 1.7-11.2 3.4 2-.6 4.1-1.1 6.1-1.5 5.2-1.1 9.9-.7 14.4 2.5 1.7 1.2 3.7 2 5.5 2.9 2 1 3.6 2.1 3.6 4.6.4.1.5.1.6.2 1.4.1 2.8.3 3.2 1.9.2.7.1 1.3-.2 1.9.7-.2 1.5-.3 2.2-.4h1.4c.8 0 1.5.1 2.3.3.4.1.9.1 1.5.2h.1c-.2-.7-.2-1.3-.5-1.5zm-46.8 7.5c-.9-.3-2.1-.7-2.6-1.5-.8-1.2-1.8-1.4-3-1.3-2.4 0-4.8 0-7.2-.1 5.9 2 12 3.2 18.2 4.3-1.8-.4-3.6-.9-5.4-1.4zm46.8-7.5c-1.4-.7-1.9-2.1-2.7-3.3-4.8-7.2-11.2-10.6-18.8-11.3-2.1-.2-4.2-.2-6.4 0-.3 0-.7.1-1.1.1-3.9.4-7.7 1.7-11.2 3.4 2-.6 4.1-1.1 6.1-1.5 5.2-1.1 9.9-.7 14.4 2.5 1.7 1.2 3.7 2 5.5 2.9 2 1 3.6 2.1 3.6 4.6.4.1.5.1.6.2 1.4.1 2.8.3 3.2 1.9.2.7.1 1.3-.2 1.9.7-.2 1.5-.3 2.2-.4h1.4c.8 0 1.5.1 2.3.3.4.1.9.1 1.5.2h.1c-.2-.7-.2-1.3-.5-1.5zm38.5 159.8h-.7c.8.1 1.4.5 1.9 1.2.8 1.1.3 2-.3 3.1s-1.3 2.2-2.1 3.1c0 .1-.1.1-.2.2.6-.5 1.1-1 1.5-1.6.6-.8 1.3-1.7 1.6-2.6.8-1.8-.1-3.3-1.7-3.4zM358.7 330c-1.4-.7-1.9-2.1-2.7-3.3-4.8-7.2-11.2-10.6-18.8-11.3-2.1-.2-4.2-.2-6.4 0-.3 0-.7.1-1.1.1-3.9.4-7.7 1.7-11.2 3.4 2-.6 4.1-1.1 6.1-1.5 5.2-1.1 9.9-.7 14.4 2.5 1.7 1.2 3.7 2 5.5 2.9 2 1 3.6 2.1 3.6 4.6.4.1.5.1.6.2 1.4.1 2.8.3 3.2 1.9.2.7.1 1.3-.2 1.9.7-.2 1.5-.3 2.2-.4h1.4c.8 0 1.5.1 2.3.3.4.1.9.1 1.5.2h.1c-.2-.7-.2-1.3-.5-1.5zm-46.8 7.5c-.9-.3-2.1-.7-2.6-1.5-.8-1.2-1.8-1.4-3-1.3-2.4 0-4.8 0-7.2-.1 5.9 2 12 3.2 18.2 4.3-1.8-.4-3.6-.9-5.4-1.4zm89.4 169.3c0 .1.1.4.3.5.9.8 1.8 1.6 2.6 2.4.4-1.4.8-2.9 1.2-4.3-1.4.4-2.7.9-4.1 1.4zm-4.1-17h-.7c.8.1 1.4.5 1.9 1.2.8 1.1.3 2-.3 3.1s-1.3 2.2-2.1 3.1c0 .1-.1.1-.2.2.6-.5 1.1-1 1.5-1.6.6-.8 1.3-1.7 1.6-2.6.8-1.8-.1-3.3-1.7-3.4z" style="fill:url(#SVGID_00000180350355423751618870000018200660614393698476_)"/>
  <path d="M507.5 305.3c-.2-1.3-1.2-1.9-2.4-2-5.6-.7-10.8-2.7-15.9-5.1-12.5-5.9-25.6-8.4-39.4-7-9.1.9-17.6 3.1-24.8 9.1-1.1.9-2.2 1.6-3.4 2.1-2 .9-4.2 1.3-6.6 1.3-9.2 0-18.4.1-27.6.2-3.1 0-6-.5-8.8-1.8-3.5-1.6-7.1-3.2-10.6-4.9-8-3.9-16.4-6.9-25.3-7.6-4.8-.4-9.6-.1-14.4.2-5.2.3-10.4.9-15.3 2.5-10.2 3.3-20.7 4.6-31.2 6.4-8.9 1.6-17.8 2.9-26.7 4.7-16 3.1-32 6.5-48 9.7-3.1.6-6.2 1.3-9.4 1.9-3.2.6-6.1 1.7-9 3.2-5.1 2.6-7.9 7.3-11 11.8-.8 1.2-.5 2.6.4 3.3 1 .8 2.4.6 3.5-.5.8-.8 1.4-1.7 2-2.7 1.9-3 4.5-5.2 7.9-6.4 2.6-.9 5.3-1.8 8.1-2.3 2.4-.4 4.7-.9 7.1-1.3 7.6-1.4 15.3-2.7 22.9-4 8.1-1.4 16.2-2.6 24.4-3.4 7.9-.7 15.7-1.9 23.5-3 2.4-.3 3.1-.3 4.3 1.8.6 1 1.1 2.2 1.2 3.3.3 3.3.5 6.7.6 9.1-.5 7 .4 12.9 1.5 18.8 1.8 9.9 6.2 18.6 12.6 26.2 4.6 5.4 10.2 9.5 16.9 11.8 2.3.8 4.5 1.6 6.8 2.3 8.5 2.4 16.9 2.4 25.2-.4 10.5-3.5 18.9-9.9 25.6-18.6 7.4-9.5 12.2-20.4 15.5-31.9 1.2-4.2 2.8-8.3 4.6-12.3.6-1.4 1.5-2.6 2.4-3.9 1.3-1.8 3.3-2.8 5.4-3.2 1.8-.4 4.5.4 5.6 2.7 1.2 2.7 2 5.3 2 8.3 0 1.7.1 3.5.3 5.2.4 3.3 1.1 6.5 2.4 9.6 1.2 3.2 2.1 6.5 2.9 9.9 1.1 4.6 1.7 9.5 3.9 13.8 8.2 16.2 26.5 24.5 43.2 20.8 10.8-2.4 19.9-8.1 27.4-16.2 5.3-5.7 8.5-12.7 11.2-19.9 1.8-4.9 3.3-9.9 3.8-15.1.3-3.2.6-6.4 1.1-9.5.4-2.8.9-5.5 3.2-7.5.5-.5.9-1.4.8-2.2.2-2.4-.1-4.8-.4-7.3zM285.2 308c-1.2-2.2 0-4 .6-6.2-6.9 1.2-13.6 2.4-20.3 3.5 0-.2-.1-.4-.1-.5 7.2-1.6 14.5-3.2 22-4.2-.7 2.6-1.4 4.9-2.2 7.4zm71.6 65.1c-5.3 3.8-11 6.8-17.6 7.6-4.2.5-8.4.7-12.6-.1-5-.9-9.9-2.5-14.5-4.7-2.1-1-4.2-2.3-6.1-3.8-9.5-8.1-15.7-18.2-17.3-30.6-1.2-9-.1-17.8 3.6-26.2 2.7-6.2 6.9-10.7 12.1-14.5.7-.5 1.3-.9 2-1.4 4.2-2.8 8.9-3.9 13.7-4.7 5.8-.9 11.6-1.3 17.4-1.9 1.5 0 2.9.1 4.4.2 7.2.6 14.1 2.7 20.7 5.6 3.6 1.5 6.7 3.9 9 7 4.3 5.8 7.5 12.1 8.6 19.3.7 4.4.2 8.8-.7 13.1-3 14.5-10.5 26.4-22.7 35.1zm23.4-26.6c-1.8 4.4-4.2 8.4-6.4 12.5-.8 1.5-1.9 2.7-3.2 3.9.2-.4.2-.7.4-1 6.2-9.3 10.2-19.5 12.1-30.5.9-5.3.9-10.7-.8-15.9-.1-.3-.2-.6-.3-.8 1.5 2.1 2.1 4.4 2.4 6.8.9 8.7-1 17-4.2 25zm119.7-17.7c-.4 13.8-4.6 26.2-14.2 36.4-6.3 6.7-13.7 11.7-22.6 14.3-14.8 4.4-29.9-.8-39.1-13.2-4.7-6.4-7.4-13.5-8.4-21.4-.8-6-1.5-12.1-.6-18.2 1.1-7.5 4-14.1 9.3-19.6 4.3-4.4 8.9-8.3 15-9.9 3.7-1 7.5-1.7 11.3-2.2 11.4-1.6 22.3.3 32.8 4.6 4.7 1.9 8.4 5.1 11.1 9.2 3.3 4.9 5.4 10.3 5.4 16.4v3.6zm.6 9.9c1.2-7.1 1.4-14.2.1-21.2 2.3 3.9 2.3 15.6-.1 21.2z"/>
  <path d="M435.7 205.9c-1.5-3.4-3.6-6.4-6.8-8.3-1.3-.8-2.3-1.7-2.8-3.4 2.4.4 4 2.1 6.2 2.8-.2-.3-.4-.6-.7-.8-1.8-1.7-4-3-6.2-3.9-1.4-.6-2.4-1.4-3.1-2.8 3.5 0 13.2 6.6 19.9 13.5.4.4.7.9 1.1 1.3.1.1.2.2.2.3 0-.1-.1-.3-.1-.4l-.9-1.5c-1.6-2.7-3.9-4.8-6.3-6.8-5.3-4.3-11.3-7.5-17.6-9.9-.1-.1-.3-.1-.5-.2-5.6-2.7-11.4-2.7-17.3-1.4h-.5c-.1 0-.1-.1-.3-.2 1-.7 2-1.3 2.9-2 .1-.1.2-.2.2-.3-.1.1-.1.2-.2.3-2 0-3.6 1-5.3 2-.7.4-1.3.9-2.1 1.2l1.2-1.2c2.6-2.1 5.5-3.5 8.7-4.3.6-.1 1.2-.4 1.8-.6.1 0 .3-.1.4-.1-.1.1-.2.1-.3.2-5.4-.1-9.7 2.1-13.4 5.8-2 2-1.5 2.3-4.2.5-1.9-1.2-3.8-2.2-5.8-3.4-.1-.3 0-.9-.2-.9-.5-.3-1.2-.3-1.7-.5-.3-.2-.7-.3-1-.5-.5-.1-1-.3-1.5-.4-.5-.2-1-.3-1.4-.5l-.3-.3h-.2c.2.1.4.2.5.2.5.2 1 .3 1.4.5.5.1 1 .3 1.5.4.3.2.7.3 1 .5.7.5 1.3 1 2 1.5-2.5-.8-5-1.6-7.5-2.3-4.2-1.1-8.4-2.1-12.8-1.6-9.5 1-18.7 3.2-27.3 7.7-4.7 2.5-9.5 4.4-14.6 5.9-5.5 1.6-11 2-16.6 1.6-2.8-.2-5.6-.6-8.3-.9-.4 0-.7-.2-1.1-.7h1.5c4.8.3 9.4-.6 13.8-2.3 5.2-2 10.5-3.9 15.4-6.6 2.5-1.3 4.8-2.8 6.9-4.7 3.1-2.8 6.3-5.4 9.5-8.1.5-.4.8-.9 1.3-1.4.1-.1.2-.1.2-.2-.1.1-.2.1-.3.2-1.4.7-2.9 1.3-4.2 2.2-2.9 2.1-5.8 4.3-8.5 6.6-1.7 1.5-3.5 1.7-5.6 1.5-.8-.1-1.1-.5-.8-1.3.5-1.8 1.5-3.3 2.7-4.8.6-.8 1.3-1.6 1.7-2.6-.4.2-.8.4-1.1.6-2.3 1.7-3.9 4-4.9 6.6-.3.7-.5 1.4-1.4 1.4-.6 0-1-.3-.8-.8.2-.6.5-1.2.9-1.7 2.8-4.4 6.3-8 11.1-10.4.8-.4 1.6-.9 2.9-1.6-1.5-.2-2.3.2-3 .5-5.7 2.4-10 6.5-13.2 11.8-.4.6-.7 1.2-1.2 1.8-.1.2-.6.1-.8.1-.1 0-.2-.4-.2-.6.1-.5.3-.9.5-1.3 4.3-7.8 10.8-12.9 19.3-15.3 1-.3 2-.3 3.1-.4 1-.1 2 0 3.1-.2-1.5-.7-3-.8-4.5-.7-3.4.2-6.6 1.2-9.5 3-1.9 1.2-3.6 2.6-5.5 3.9-1.2.9-2.4 1.9-3.7 2.6-7.4 3.8-15.3 6.1-23.7 5.6-2.6-.2-5.2-.5-8.3-1.5 7.4-1.6 14-4 19.4-8.9-.5.2-1.1.4-1.5.6-5.2 3-10.7 5-16.5 6.2-2.2.4-4.4.7-6.6.8-2.2.1-4.2-.7-6.3-1.8 1.9-1.7 4-2.6 5.9-4 1.9-1.4 3.8-2.7 5.6-4.1 1.8-1.4 3.6-2.9 5.3-4.4 1.8-1.5 3.5-3 5.2-4.6 1.7-1.5 3.5-3 5.2-5.1-1.3.2-1.7.9-2.3 1.3-6.3 4.9-12.2 10.3-18.9 14.7-2.9 1.9-5.8 3.7-8.8 5.4-3.6 2-7.4 3.4-11.3 4.5-8.6 2.4-16.5 6.4-24 11.3-4.3 2.8-7.9 6.2-11 10.3-2.9 3.9-5.5 8.1-7.7 12.4-.9 1.8-1.7 3.6-1.7 5.7 6-11.5 14-21 25.8-27-.2.2-.4.5-.6.7-.2.2-.5.4-.7.6-12.2 10.2-20.6 22.8-25.1 38-1.8 6-2.8 12.1-2.7 18.4 0 1 0 1.9.2 2.9.5 2.6.4 5.1-.1 7.6-1.2 6.3-3 12.3-6.1 17.8-.4.7-.6 1.4-1.1 2.4 1.8-1 4-3.8 6-7.9 1.4-2.9 2.4-6 3.7-9.2.6 1.3.4 2.4.2 3.6-.5 2.9-1.6 5.5-2.9 8.1-.4.8-.8 1.6-1.2 2.3l-.3.9.6-.6c1-1.3 2-2.5 2.8-3.8.9-1.3 1.5-2.8 2.5-4.5.3.8.6 1.3.8 1.8 1.7 5 1.7 5.2-.1 10.1-1.5 4-3.7 7.6-5.9 11.2-1.6 2.5-3.1 5-4.6 7.6-3.3 5.9-4.9 12.3-5.3 19-.1 2.1.2 4.1.6 6.5.6-1.2.4-2.2.4-3 .1-9.2 3.4-17.3 8.9-24.8.2 1.3-.5 2.1-.9 3-1.6 3.1-3 6.3-4 9.7-2.1 7-1.6 13.9.3 20.8.3 1 .9 1.8 1.4 2.7.2.3.3.6.5.9v.2l-.1-.1c-.2-.3-.3-.6-.5-.9-.2-.9-.3-1.9-.5-2.8-1.1-5.1-1.2-10.1-.3-15.2.4-2.3 1.1-4.6 2.4-7.3.1.8.1 1.1.1 1.4-.6 6.4.4 12.6 2.2 18.7 1.7 5.6 4.7 10.5 8.5 14.8 1.1 1.3 1.3 2.4.8 3.9-1.6 5.2-2.6 10.6-3.1 16-.5 5.6-1.1 11.2-.6 16.8.5 6.7 2.1 13.1 5.5 19 .1.2.1.4.3 1.2-5.2-5.5-9.6-10.9-12.8-17.2-3.2-6.3-4.8-13.1-6-20.1-.6 2.8-.5 5.5-.4 8.3.1 2.8.2 5.6.5 8.4.3 2.8.9 5.5 1.5 8.2.6 2.7 1.4 5.3 1.9 8-3.3-6-4.9-12.6-6.5-19.2-1.6-6.6-2.4-13.3-2.9-20.6-1.3 2.8-1.5 10.1-.7 18.7-.6-2.7-1.3-5.4-1.8-8.2-.6-4.2-.7-8.4-.2-12.7.1-.5 0-.9 0-1.6-1.2 2.4-1.7 5.4-2.3 14.1-.6-1.3-.6-2.8-.8-4.2-.2-1.5-.5-2.8-1.2-4.1-.6-1.2-.9-2.6-1.2-3.9-.2-.8-.5-1.4-1-2.1-3.1-3.7-6.6-7.1-10-10.7-.3-.3-.7-.7-.9-1.1-3.5-4.7-8.6-7.1-13.8-9-4.1-1.5-7.8-.2-10.3 3.4-1.7 2.3-3.1 4.8-4.6 7.3-.1.2-.5.3-.7.5-.1-.3-.4-.5-.4-.8 0-.9 0-1.8.1-2.6.9-6.2 2.1-12.3 3.9-18.3.9-3 2.2-5.8 3.4-8.7.4-.9.7-1.8 1.1-2.6 0 0 0-.1.1-.1v.2c-.7.8-1.4 1.5-2 2.4-2.2 3.7-4.8 7.2-6.5 11.2-.1.1-.2.2-.5.4-.2-.9-.3-1.7-.4-2.6l-.9-8.1c-.1-1.2-.2-2.4-.2-3.6-.1-9.7.7-19.3 2.2-28.9 1.2-7.8 2.6-15.6 3.9-23.4.3-1.8.4-3.6.6-5.5 0-.3-.1-.7-.3-1.1-1.2 3.8-1.4 7.8-2.4 11.7-1 3.9-1.9 7.9-2.9 11.9-.9 3.9-1.8 7.8-2.8 12.1.1-12.1 1.1-27.9 9.3-50.1-.6.6-1 .8-1.2 1.2-.8 1.6-1.7 3.3-2.3 5-3.6 10.1-6.7 20.3-8.7 30.9 0 .1-.2.3-.4.7-.5-2.7-.4-5.1 0-7.5 1.1-6.1 2.9-11.9 4.7-17.8.3-.9.4-1.8.6-2.8.1 0 .2 0 .2-.1v-.2c-.1.1-.1.2-.2.3-.7 1.3-1.5 2.5-2 3.8-1.2 3.4-2.3 6.8-3.4 10.2-.1.4-.2.7-.5 1.1-.4-2.5-.1-4.9.5-7.2 2.9-11.5 6.5-22.8 11.6-33.5 1.2-2.5 2.6-4.9 4-7.4.1-.3.2-.6.2-.9l-.6.6c-1.7 2.3-3.5 4.6-5 7-2.4 3.9-4.8 7.9-7 12-1.7 3.2-2.9 6.5-4.4 9.8-.3.8-.6 1.6-1 2.8-1-2.1-1.5-4-.9-5.9 3.1-9.8 7.2-19.1 13.1-27.6 1.3-1.9 2.8-3.7 4.2-5.5-1.1.3-1.1.2-2.1 1.3-5.1 5.3-9.6 10.9-12.9 17.5-.7 1.3-1.3 2.7-2.2 4.4-.4-1.2-.2-2-.1-2.8.7-5.3 1.9-10.5 3.5-15.6.2-.7.3-1.4.5-2.1l.1-.2v.2c-.5.8-1.2 1.5-1.5 2.4-.9 2.5-1.7 5-2.5 7.5-.3.8-.5 1.7-1.1 2.5 0-.6-.1-1.1-.1-1.7 1-8.4 3.9-16.1 8.6-23.1 2.3-3.4 5.1-6.3 8.4-8.8 1.4-1.1 2.3-2.4 2.9-4 2-4.8 4.4-9.4 7.1-13.9 3.8-6.4 8.9-11.7 14.7-16.3 4.1-3.2 8.3-6.3 12.8-8.9 3.3-1.9 6.9-3.4 10.6-4.3 2.8-.7 5.7-1.3 8.3-2.4 2.8-1.3 5.5-3 8-4.8 6.2-4.4 12-9.4 17.7-14.4.7-.6 1.5-1.2 2.2-1.9 8.1-7.6 17.6-12.3 28.2-15.3 7.2-2 14.6-3.7 22.1-4.1 6.4-.4 12.5.9 18.3 3.8 6.6 3.4 11.4 8.7 16 14.2.7.8 1.3 1.6 2 2.4.3.5.7.9 1 1.4.2.2.3.4.5.5-.1-.2-.2-.5-.3-.7l-.9-1.5c-3.8-6.6-8.3-12.5-15-16.4-.4-.2-.8-.5-1.5-1 .8-.3 1.3-.6 1.7-.6 1.6.2 3.2.3 4.7.7 4.9 1.2 9.3 3.5 13.4 6.2 1.9 1.3 3.8 2.7 5.7 4 .5.4 1 .7 1.7 1.2-.8-1.8-5.3-5.6-9.7-8.3-3.7-2.3-7.7-3.9-12.2-5.1 1.7-1.1 3.3-1.5 4.9-1.5 2.6 0 5.3 0 7.9.2 3.2.2 6.4.5 9.5 1 6.6 1.1 12.4 4 18.1 7.3.6.4 1.2.7 1.9 1.1.1 0 .2 0 .6.1-.4-.5-.7-1-1-1.2-5.4-4-11.4-6.8-17.9-8.3-3.8-.9-7.8-1-11.6-1.3-.6 0-1.3-.1-2.4-.1.8-.3 1.1-.6 1.5-.6 1.9-.5 3.9-1 5.8-1.3 1.5-.2 3-.2 4.5-.1 5.2.5 10.3 1.7 15.1 3.6 4.8 1.9 9 4.8 12.7 8.4.5.5 1.1 1.1 1.9 1.4-.2-.4-.4-.8-.7-1.1-2.2-2.8-5-4.9-8-6.8-.9-.6-1.7-1.2-2.5-1.8 5.2 1.3 9.4 4.3 12.7 8.5.6.8 1.2 1.7 1.8 2.5.2.3.5.5 1 1.1 0-1.4-.6-2.1-1-2.8-2.8-4.5-6.4-8.1-11.3-10.4-4.2-2-8.5-3.3-13.1-3.7-1.1-.1-2.2-.1-3.3-.1-2.1 0-4.2 0-6.4-.2 2.1-1.6 4.4-2.3 6.8-2.3 12 0 22.3 3.8 29.3 14.2 1.9 2.8 3 6 3.9 9.2.4 1.5.8 2.9 1.1 4.4.2 1 .8 1.6 1.8 2 2.7 1.2 5.3 2.5 8 3.8.8.4 1.6.7 2.4 1.1 5.3 2.2 9.2 6.2 12.8 10.6-.3-.1-.7-.2-1-.3-6.2-3.5-12.7-3.4-19.3-1.9-2.9.7-5.7 1.6-8 3.5-.4.4-.9.7-1.3 1.1-.2.1-.4.1-.6.2.1.1.1.2.2.2.1-.2.3-.3.4-.5.5-.3 1-.5 1.6-.8 3.4-1.4 6.8-2.6 10.5-3.1 7.2-1 13.8.4 19.6 5 2 1.6 3.6 3.4 4.7 5.7.7 1.5 1.8 2.6 3 3.7 3 2.6 6.1 5.2 8.7 8.2 6.6 7.4 11 15.9 11.8 25.9.4 4.2.6 8.5.8 12.7.1 1.7.6 2.8 2.1 3.7 5 3.2 8.2 7.9 10 13.4 1.2 3.7 2.1 7.5 2.8 11.4 1.5 8.1 2.9 16.2 4.3 24.3.1.3 0 .6 0 1.1-.9-.2-1-1-1.3-1.6-2.9-6.1-4.9-12.5-6.1-19.1-.7-3.9-1.8-7.8-2.8-11.7-.2-.7-.6-1.4-1-2.1.2 7.7 2.3 15.2 1.7 23-.2-.3-.5-.6-.7-1-1.7-5.3-4.1-10.4-6.3-15.6-.2-.4-.4-1-.7-1.2-1.4-.8-1.8-2.2-2.5-3.4-1.6-2.9-3.1-5.8-4.6-8.7-.2-.5-.4-1-.8-1.9.8.4 1.2.5 1.5.8 2.2 1.5 3.4 3.8 4.8 5.9.7 1.4 1.3 2.8 2 4.3M349.9 92.9c-.3-.2-.7-.3-1-.5-2.2-1.3-4.5-1.9-7.2-1.8l6.9 2.1c.3.1.7.3 1 .4.3.1.7.3 1 .4.6.3 1.3.6 1.9.9.3.2.7.3 1 .5l.1.1-.1-.1c-.3-.2-.7-.3-1-.5-.4-.7-1-1-1.8-1.1-.2 0-.5-.2-.8-.4zM159.3 297c.2-.3.4-.6.6-.8 1.6-2.3 3.1-4.6 4.9-6.8 3.6-4.4 6.6-9.2 9.5-14.1 3.9-6.8 6.7-13.9 8-21.7.8-4.8 1.4-9.6 1.2-14.5 0-.6.1-1.2-.8-1.8-.1 1.2-.3 2.2-.4 3.3-.6 9.2-2.5 18.2-6.5 26.6-3.7 7.7-7.5 15.3-12.5 22.3-1.4 2-2.4 4.3-3.6 6.5-.2.3-.3.6-.4 1 0 0-.1.1-.2.1v.2c0-.2.1-.2.2-.3zm218.8-165.1c-.3.1-.7.3-1 .4-.8.5-1.6.9-2.5 1.4-.5.3-.9.6-1.4 1-.1.1-.3.1-.4.2l-.3.3h.6c.1 0 .2-.2.3-.3.5-.3 1-.6 1.4-.9l2.4-1.5.9-.6c.3-.2.6-.3 1-.5.5-.2.9-.3 1.4-.5.5-.1 1-.3 1.5-.4.6-.2 1.3-.3 1.9-.5.7 0 1.4-.1 2.5-.1-1.2-.6-1.9-.3-2.5.1-.6.2-1.3.3-1.9.5-.5.1-1 .3-1.5.4-.5.2-.9.3-1.4.5-.4.2-.7.4-1 .5zm-23.5 3.9c-.2.3-.3.6-.5 1-.3.5-.6 1-1 1.4-.3.8-.6 1.6-1 2.4-.2.3-.3.7-.5 1-.3.8-.6 1.6-1 2.4-.2 0-.6 0-.6-.1-.1-.4-.2-.8-.2-1.1-.7-5.6-2.3-10.9-5.1-15.8-.7-1.2-1.4-2.5-2.7-3.2l-.1-.1.1.1c.4 1.1.8 2.2 1.3 3.3 1.6 3.6 3.1 7.3 4.1 11.2.6 2.3.9 4.6 1.1 7.2-1.6-2.4-3-4.5-4.5-6.5-1.9-2.5-4.3-4.5-7.1-5.9-2.4-1.2-4.8-1.6-7.3-.1h-.2l.1-.1c.6 0 1.1.1 1.7 0 2.4-.3 4.4.5 6.2 1.9 2.5 1.8 4.7 4 6.6 6.6 2.3 3.2 3.7 6.8 5 10.5.9 2.6 2 5.2 3.1 7.8.3.7.8 1.4 1.3 2 .7.7.9.1 1-.6.4.2.8.7 1.1-.1.2-.6.4-1.2.4-1.8.5-3.8 1.3-7.5 2.7-11.1.1-.4.1-.8.2-1.1-1 1.1-1.6 2.3-2.1 3.5-1.4 3.4-2 7-2.3 10.7-.7-1-.9-2-.7-3.2.9-5.6 2.2-11.1 4.3-16.4.2-.4.2-.9.4-1.3-3.4 4.8-4.8 10.2-5.9 16-1.2-1.3-1.1-2.6-.8-3.8 1.3-4.9 3-9.6 5.3-14.1 3.6-6.9 8.5-12.5 15.9-15.7.1-.1.3-.2.4-.3.4-.2.9-.4 1.3-.6.6-.2 1.3-.3 1.9-.5 2-.1 4-.1 6-.2-1.5-.3-3-.4-4.4-.3-.5 0-1 .3-1.5.5-.7-.1-1.4-.2-2 .4-.5.1-1 .2-1.5.4-2.9.7-5.4 2.3-7.8 4.1-4.8 3.8-8.4 8.6-10.8 14.1-1.3 3-2.3 6.1-3.4 9.2-.1.4-.3.7-.6 1.3-.9-1.3-.6-2.5-.4-3.7.2-1.1.4-2.2.5-3.3.3-.8.6-1.6 1-2.4.2-.3.3-.7.5-1 .3-.8.6-1.6 1-2.4.3-.5.7-.9 1-1.4.1-.2.3-.5.5-.8 0-.1 0-.1.1-.2-.1 0-.1.1-.1.2zm-124.2 4.1c-.3-.1-.7-.3-1-.4-.2-.1-.3-.3-.5-.4 0 0-.1.2-.2.2l.6.3.9.6c.3.2.6.4.9.5.2.3.4.5.6.8-1.7-.8-3.3-1.7-5-2.4-1.7-.7-3.3-1.8-5.3-1.9.2.4.4.7.7.8 5.8 3.1 11.6 6 18 7.7 1.3.4 2.7.3 4 .5h.1-.2c-.9-.4-1.8-.8-3-1.3.6-.1.9-.1 1.1-.2l.1.1h-.2l-10.8-4.5c-.1-.1-.5-.2-.8-.4zm72.8-42.1-.9-.6c-1.7-1.1-3.6-1.6-5.6-2-5.5-.9-11-.7-16.4.3-5.3 1-10.3 2.8-15.4 4.5-7.5 2.5-14.3 6.4-20.3 11.6-1.1.9-2.2 1.9-3.3 2.8-6.7 5.7-13.4 11.3-20.9 16-.3.2-.4.5-.9 1.2h10c3.9 0 7.4-1.3 10.4-3.7 1.3-1 2.6-2.1 3.8-3.3 1.4-1.3 3.1-2.3 5-2.7 2-.4 3.9-.5 5.9-.7.8-.1 1.5 0 2.3 0-1.7-.5-3.5-.7-5.2-.6-1.7.1-3.5.4-5.2.8-2.7.6-4.3 2.8-6.7 4.4 1.6-3.3 4-5.4 6.8-6.3 2.8-.9 5.6-1.3 8.5-.8.4.1.8 0 1.1.1-3.6-2.2-7.3-1-11.3-.3.3-.7.5-1.2.7-1.5 3.2-5.5 8.3-8.4 14.3-10 1.9-.5 4-.3 5.9-.6 2.3-.4 4.4-.1 6.6.5 8.1 1.9 15.6 5.2 22.7 9.5.5.3 1 .5 1.5.8-.4-.8-1-1.4-1.7-1.8-6.9-4.6-14.3-8.1-22.4-10-.6-.2-1.3-.2-2.3-1.1 1.2 0 1.8-.1 2.4 0 3.2.4 6.3 1 9.3 2.1 3.6 1.3 7 3.1 10.3 5 .2.1.3.3.5.4.2.1.4 0 .6 0-.1-.1-.1-.3-.2-.4l-.6-.3c-5.2-4.2-11.1-6.8-17.7-8-.8-.1-1.7-.3-2.5-.5 0-1.2 1.1-1.7 1.8-2.4 1.6-1.5 3.2-2.9 5.5-3.2 7.3-1.2 14.6-1.8 21.8.4h.5c.7.2 1 .3 1.3.4.3.1.7.3 1 .4l.2.1-.2-.1c-.3 0-.7-.2-1-.4zm-68.6 42.7-.2-.1.2.1c.3.1.6.3 1 .5.5.2.9.3 1.4.5l.1.1h.1c-.1 0-.2-.1-.3-.1-.5-.2-.9-.3-1.4-.5-.2-.1-.6-.3-.9-.5zm70.7-40c-.3-.2-.6-.3-.9-.5-4.6-2.4-12-3.5-16-2.2 5.3.4 10.6.8 15.6 2.6.3.1.7.3 1 .4.3.2.6.3 1 .5.5.3 1 .5 1.6.8l.5.5c.1-.1.1-.2.2-.2l-.6-.3c-.5-.4-.9-.7-1.4-1.1-.4-.1-.7-.3-1-.5zm27.2 84.2c.3-.2.6-.3.9-.5.3-.2.6-.3.9-.5.3-.1.7-.3 1-.4l4.8-2.4c.3-.2.6-.3 1-.5.4-.1.7-.2 1.1-.4.8-.2 1.7-.5 2.5-.7 8.2-2.8 16.3-5.4 25.2-4.7.1 0 .2 0 .4.1h-.4c-.7-.2-1.3-.5-2-.6-4.1-.3-8.1 0-12.1.9-4.7 1.1-9.3 2.6-13.7 4.8-.3.2-.6.3-.9.5-.3.2-.6.3-1 .5-1.9.3-3.4 1.2-4.8 2.4l-.9.6c-.3.2-.6.3-.9.5-.4.1-.7.3-1.1.4l-.1.1.1-.1zm-62.4-42.2c-.3.1-.7.3-1 .4-.3.2-.7.3-1 .5-1.1.6-2.3 1.2-3.4 1.9-.5.3-.9.7-1.4 1-.1.1-.2.2-.2.3.1-.1.2-.1.3-.2l1.5-.9c1.1-.6 2.2-1.3 3.4-1.9.3-.2.6-.4.9-.5.3-.3.6-.5.9-.6 0 0 .1 0 .2-.1l.1-.1c-.1.1-.2.1-.3.2zm61.4 3.3c-.1-.1-.2-.1-.3-.2.1.1.2.2.3.2l.1.1-.1-.1zm-135.8.5c-.3.2-.6.3-.9.5l-.2.1.2-.1c.2-.2.6-.4.9-.5l.1-.1-.1.1zm223 31.8c.3.2.6.3 1 .5.1.1.2.3.3.3.2.1.4.1.6.1-.1-.2-.2-.4-.3-.5-.1-.1-.3-.1-.4-.2-.3-.2-.6-.4-.9-.5-.3-.2-.6-.3-.9-.5-5.4-3.1-11.1-2.9-16.9-1.5-2.3.6-4.5 1.6-6.4 3.1-.7.6-1.5 1.1-1.6 2.1.2.1.3.1.3.1.4-.2.8-.5 1.2-.8 5-3.9 10.8-4.9 16.9-4.3 2.1.2 4.1 1.1 6.2 1.6.3.2.6.4.9.5zm1.4-.9c.2 0 .3.1.5.1-.1-.1-.2-.3-.3-.4l-.9-.6c-5.5-3.6-15.7-4.8-19.7-2.3h1.1c2.7-.4 5.4-.3 8.1 0 3.5.3 6.9 1.4 10.1 2.6.5.3.8.4 1.1.6zm-117.3-73.1c-.3-.2-.6-.4-.9-.5-.9-.7-1.8-1.1-2.9-.9-.3-.1-.5-.3-.8-.4-.1 0-.3.1-.4.1.1.1.2.3.4.3.2.1.4 0 .7 0 .9.3 1.9.7 2.8 1 .3.1.7.2 1.1.4l.1.1c0-.1-.1-.1-.1-.1zm41.2 68.1c.4-.1.7-.2 1.1-.3 2.2-.6 4.3-1.1 6.5-1.7 4.2-1.1 8.4-1.8 12.8-1.6 2.2.1 4.4.4 6.6.6-.6-.5-1.2-.7-1.9-.9-5.1-1-10.2-.9-15.2.1-3.1.7-6.2 1.4-8.9 3.2-.4.3-.7.4-1 .6 0 0-.1 0-.1.1l-.1.1c0-.1.1-.2.2-.2zm43.6-22.5-.1.1.1-.1c.3-.2.7-.3 1-.5.5-.2.9-.3 1.4-.5h.2s.1-.1.1-.2c-.1.1-.2.2-.3.2-.5.2-.9.3-1.4.5-.3.2-.6.3-1 .5zM202 152.5c-.3.2-.6.3-.9.5-.3.2-.6.3-1 .5-.8 0-1.5.2-1.9 1-.3.1-.7.3-1 .4l-1.5.9-1.5.9c-.5.3-1 .6-1.4 1-2.8 1.9-5.5 3.8-8.3 5.6-1.9 1.3-3.9 2.4-5.9 3.7.2-.3.3-.6.5-.8 6.6-5.9 13.4-11.4 21.5-15 .7-.3 1.5-.4 2.1-1.5-1.2.3-2 .4-2.8.7-10.1 3-18 9.2-24.4 17.4-1.6 2.1-3.5 3.4-5.7 4.6-.4.2-.8.3-1.4.5.2-.7.3-1.1.5-1.4 1.9-5 5.1-9 9-12.6 1.7-1.6 3.5-3.1 5.2-4.6 1.3-1 2.5-1.9 3.8-2.9.8-.5 1.6-1 2.3-1.5.3-.2.6-.4.9-.5.8-.5 1.5-1 2.3-1.5-.8.4-1.7.8-2.5 1.3-.3.2-.6.3-.9.5-.8.5-1.6.9-2.4 1.4-1.3.9-2.6 1.9-3.9 2.8-1.9 1.5-3.9 3-5.8 4.5 1.3-1.9 2.8-3.8 4.5-5.3 4.2-3.6 8.7-6.8 13.7-9.2.8-.4 1.5-.9 2.2-1.4.3-.2.6-.3 1-.5.5-.2.9-.3 1.4-.5.5-.2.9-.3 1.4-.5h.4c.1 0 .1-.1.2-.1-.2.1-.4.1-.6.2-.5.2-.9.3-1.4.5-.5.2-.9.3-1.4.5-.3.2-.7.3-1 .5-.8.2-1.6.3-2.3.7-3.8 2-7.6 4.1-11.4 6.1-.3.2-.7.5-1 .7-9.1 6.9-15.5 16-20.3 26.3-.2.4-.2.9-.3 1.7.9-.5 1.6-.9 2.2-1.2 1.7-1 3.3-2 5-2.9 8.7-4.3 16.4-10 23.9-15.8.5-.3.9-.7 1.4-1 .5-.3.9-.7 1.4-1 .5-.3.9-.7 1.4-1l.9-.6c.6-.3 1.3-.6 1.9-1 .3-.2.6-.3 1-.5.2-.3.5-.4.9-.6 0-.1.1-.1.2-.1-.1 0-.2.1-.2.1zm72.4-41.7c-.1 0-.2-.1-.3-.1.1 0 .2 0 .3.1v.5c-2-.2-3.9-1.4-6.6-1.3 4.4 1.7 8.4 3.1 12.3 4.6l.1.1h-.2c-1.3-1-2.5-1.9-3.8-2.9-.3-.2-.6-.3-1-.5-.1-.2-.5-.3-.8-.5zm151.2 46.6c-.2-.3-.3-.7-.5-1-.3-.5-.5-1-.8-1.6l-.9-1.5c-.4-.5-.7-1.1-1.1-1.6-6.4-9-20.3-13.2-29.1-12.3-1 .1-1.9.3-2.7.9.4.1.8.2 1.2.1 2.8-.5 5.6-.3 8.3.1 8.6 1.4 16 4.9 21.7 11.6.4.5.9.9 1.3 1.4.3.5.7.9 1 1.4.4.4.7.9 1.1 1.3.2.5.3.8.5 1.2.2.3.4.6.5.9.2.3.3.6.5 1 .2.3.3.6.5 1 .2.5.3.9.5 1.4 0 .1.1.1.1.2l-.2-.2c-.2-.5-.3-.9-.5-1.4-.2-.3-.3-.6-.5-1-.2-.3-.3-.6-.5-1-.1-.3-.3-.6-.4-.9zm-23.4 7.3c.1-.2.2-.3.3-.5-.2.1-.4.1-.6.2-.3.2-.7.3-1 .5-.6.2-1.4.1-1.5 1.2.7-.3 1.2-.5 1.8-.8.4-.3.7-.4 1-.6zm22.4-5.9c-.2-.3-.3-.6-.5-.9-.3-.5-.7-.9-1-1.4v-.2l-.1-.1c.1.1.1.2.2.3l.9 1.5c.2.1.3.5.5.8.1.4.3.7.4 1l1.8 3.9c.4.9.7 1.8 1.1 2.8.3 1.3.7 2.5 1 3.8v.4c0 .2.1.4.2.5 0-.2.1-.4 0-.6 0-.1-.2-.2-.3-.4 0-1.4-.1-2.7-1-3.8.2-1.1-.2-2.1-.8-3-.6-1.3-1.3-2.6-1.9-3.8-.1-.3-.3-.6-.5-.8zm-105-62.4-.1-.1.1.1c.5.1 1 .3 1.4.5.7.4 1.3.9 2 1.2 4.1 2.1 8.2 4.3 11.8 7.3 3.1 2.7 6.3 5.4 9.4 8.1.4.3.8.5 1.2.8.1-.1.2-.3.3-.4-1.6-1.7-3-3.4-4.7-5-5-4.9-10.5-9.1-17.2-11.3-.9-.3-1.8-.4-2.8-.6-.5-.3-1-.5-1.4-.6zm33.1 83c.1 0 .3 0 .4-.1.1 0 .1-.2.1-.2h-.2c-.1.1-.2.3-.3.3-.1 0-.3 0-.4.1-.1 0-.1.1-.1.1.1-.1.3-.1.5-.2zm-3.4-12.5c.5-.2.9-.3 1.4-.5.5-.1 1-.3 1.5-.4.4-.1.9-.1 1.3-.2 0-.1-.1-.2-.1-.4l-1.2.6c-.5.1-1 .3-1.5.4-.4.2-.9.4-1.4.5l-.1.1.1-.1zm-59.5-62.8c-.1-.1-.2-.2-.4-.3h-.2c.1.1.1.2.2.2.1.1.3 0 .4.1.5.1.9.3 1.4.5.3.2.6.5 1 .6 4.5 1.7 7.9 4.7 11 8.2 1.4 1.6 2.9 3.2 4.5 4.6 1.4 1.2 3.1 2.2 4.7 3.2.4.2.9.2 1.4.3-3.2-1.8-5.6-4.4-8-6.9-1.3-1.4-2.6-2.8-4-4.2-2.3-2.4-5-4.2-8.1-5.4-.8-.3-1.7-.4-2.5-.6-.4 0-.9-.2-1.4-.3zm60.4 63.8c-.4.2-.9.4-1.3.5h-.2l.1-.1c.5-.1.9-.3 1.4-.4.1 0 .2-.1.4-.1.1 0 .1-.1.2-.1-.3.1-.4.1-.6.2zm-140.6 95c.2-.5.3-.9.5-1.4 1.1-1.7 1.5-3.7 1.5-5.7 1-3 1.3-9.8.5-12.3-.2 4.1-.5 8.1-.7 12.2-.7 1.9-1.3 3.8-1.4 5.8 0 .4-.2.9-.4 1.4 0 .1-.1.1-.1.1v.2c0-.1.1-.2.1-.3zm197.2-93.1c-.1.1-.3.2-.4.2.2-.1.3-.1.4-.2.1-.1.2-.1.4-.2-.1.1-.2.1-.4.2zm-105.5-64.3c.1 0 .1 0 .2.1-.1 0-.2-.1-.2-.1-.5-.1-1-.3-1.4-.5 0-.1-.1-.1-.1-.2h-.2c.1.1.2.1.3.2.5.2.9.3 1.4.5zm91.7 42.2c.6-.2 1.3-.3 1.9-.5.6 0 1.1.1 1.7 0 .5 0 .9-.1 1.3-.2-1.1-.4-2.1-.5-3 .2-.7.1-1.4-.1-1.9.5h-.4c-.1 0-.1.2-.2.3h.2c.1-.1.2-.2.4-.3zM178.4 270c.3-.5.7-.9 1-1.4.4-.8.7-1.5 1.1-2.3.3-.7.8-1.4 1-2.1.9-3.1 1.9-6.2 2.7-9.3.4-1.4.4-3 .5-4.4.5-.6.6-1.2 0-1.9v1.9c-.2.4-.4.8-.6 1.3-1.1 4.1-2.2 8.1-3.3 12.2-.2.8-.4 1.5-.6 2.3l-.9 2.4c-.2.4-.5.9-.9 1.3v.2-.2zm199.3-126c.1-.1.3-.1.4-.2l.3-.3c-.2 0-.4-.1-.6 0-.1 0-.2.2-.3.3-.1.1-.3.1-.4.2-.1.1-.2.2-.3.4.2 0 .4.1.6 0 .1-.1.2-.3.3-.4zM285 131.9h.7c.1 0 .3-.1.4-.1-.2-.1-.4-.2-.5-.2-.2 0-.4.2-.6.3-.6.2-1.3.3-2 .4-.7.1-1.4.1-2.1.3-6.9 1.9-13.4 4.8-19.4 8.7-1.6 1-3.1 2.3-4.6 3.5-.3.3-.6.7-.9 1 .8 0 1.4-.4 1.9-.8 7-5.2 14.6-9.1 23-11.7.8-.2 1.5-.6 2.2-.9.7-.1 1.3-.3 1.9-.5zm19.2 32.2c-.5.3-1 .5-1.6.8-.3.2-.7.3-1 .5-2.5.9-5.1 1.9-7.6 2.7-2.6.8-5.3 1.5-7.9 2.2 0 .2 0 .3.1.5.5 0 1 .1 1.5 0 5-1 9.9-2.5 14.3-5.1.3-.2.6-.4.9-.5.4-.5.8-.8 1.3-1.1 0 0 .1 0 .2-.1l.1-.1c-.1 0-.2.1-.3.2zm-118.1 85.8c.7-.7.5-1.6.5-2.4.9-1.1.4-2.5.6-3.7.1-.6.2-1.2.4-1.7h-.3v1.8c-.8 1.2-.5 2.5-.6 3.7-.2.7-.4 1.5-.6 2.3-.1.2-.2.3-.2.4-.1.1-.1.3-.1.5 0 .1.1.1.1.2.1-.2.2-.4.2-.6.1-.2 0-.3 0-.5zm109.8-87.5c-.4.3-.8.5-1.2.8.1.1.1.2.2.3.4-.2.9-.5 1.3-.7.1-.1.3-.1.4-.2.1-.1.2-.4.3-.5-.1 0-.3-.1-.4 0-.3 0-.5.2-.6.3zm91.9-10.7c.4-.1.9-.1 1.3-.2.1.3-.8.7.1.8.3 0 .6-.1.9-.2 4.5-1.1 9-1.4 13.6-.9 1.9.2 3.8.5 5.6.7-.2-.4-.6-.7-.9-.8-1.7-.3-3.2-.9-4.6-1.8-.7-.5-1.6-.7-2.5-.8-4-.5-7.8.3-11.4 1.9-.8.3-1.6.7-2.4 1-.3.2-.6.3-1 .5-.7.2-1.4.5-1.9 1.7 1-.7 1.6-1 2.1-1.4.5-.1.8-.3 1.1-.5zm-3.5-15c-1.1-.2-2.1.3-3 .8-2.1.6-4.1 1.4-5.6 3h-.2s0 .1-.1.2c.1-.1.2-.2.3-.2 2-.9 3.9-1.8 5.9-2.7.9-.4 1.8-.7 2.7-1.1.2-.1.4-.1.6-.2-.1 0-.1-.1-.2 0-.1 0-.3.1-.4.2zm-54.1-25.6c-.1-.1-.2-.3-.3-.3-.2-.1-.4 0-.6 0 .1.1.2.3.3.4.1.1.3.1.4.2.8.5 1.5 1 2.3 1.6 1.5 1.3 3 2.6 4.4 4 .9.8 1.6 1.7 2.4 2.6.1.1.2.1.3.2 0-.1-.1-.2-.1-.4-1.3-3.1-3.8-5.2-6.6-6.8-.9-.5-1.7-1-2.5-1.5zm4.1 33.4c.2 0 .4.1.5.1-.1-.2-.2-.3-.2-.5-1.2-.9-2.4-1.6-4-.9 1.2.5 2.4.9 3.7 1.3zm76.8 27.2c.1.1.3.2.4.2 0 0 .1 0 .2-.1-.2.1-.4 0-.6-.1-2.1-1.1-4.3-1.1-6.5-.3 2.2.1 4.4.2 6.5.3zm-28.7 6.8c-.7-.1-1.5-.2-2.2-.4 1.3 1.1 2.6 1.8 4 2.5.7.3.4-.4.5-.7.6.2 1.3.5 1.9.7-1.9-2-4.1-3.3-6.9-3.5.9.4 1.8.9 2.7 1.4zm-25.9 0c.6 0 1.1.1 1.7 0 3.6-.7 7.3-.6 11-.5.5 0 1-.1 1.5-.1-.2-.3-.4-.4-.7-.4-2.9 0-5.8-.1-8.6 0-1.7 0-3.3.2-4.9 1h-.9c-.1 0-.1.1-.2.1.1.1.2.3.3.2.3-.1.5-.2.8-.3zM330.1 130c.3 0 .6.1 1 0 3.5-.4 6.4.7 9 3 .2.2.6.3 1.1.5-1.7-4.3-6.7-5.8-11.1-3.5h-.1.1zm-63.2 3.5c1.9-1 3.8-2 5.8-2.8 2.1-.9 4.2-1.5 6.3-2.3 2-.7 4.2-.5 6.4-1.5-4.8-1-13.4 1.9-18.8 6.3-.1.1-.3.1-.4.2-.1.1-.2.2-.3.4.2 0 .4.1.6 0 .2 0 .3-.2.4-.3zm-106.2 99.1c.8-1.9 1.7-3.8 2.5-5.7 2-4.7 4.5-9 8.3-12.4.3-.3.5-.6.7-1-1.2.3-2.1.9-2.9 1.7-3.1 2.8-5.4 6.3-6.8 10.3-.8 2.3-1.8 4.6-1.8 7.1v.2-.2zm186.2-82.5v.2c.1 0 0-.2 0-.2-.2-.6-.3-1.2-.5-1.8-2.6-5.7-7-9.6-12.6-12.2-.8-.4-1.7-.6-2.5-.7-1-.1-2 .1-3.1.3-.2 0-.3.3-.5.4.2.2.4.5.7.5.3.1.6.1.9.1 2.5-.1 4.6.9 6.7 2.2 3.8 2.4 6.7 5.6 9.2 9.2.6.7 1.2 1.3 1.7 2zm-120.1 29.6c-10.2 7.1-19.6 22.1-18.6 30.4.5-.9.8-1.5 1.1-2.1 1.7-3.9 3.4-7.7 5.2-11.6 1.5-3.2 3.4-6.1 5.7-8.8 2.3-2.6 4.6-5 7-7.5.4-.4.8-.7 1.3-1.1l-.3-.3c-.6.3-1 .7-1.4 1zm50-42.5c-1.1.3-2.3.5-3.4 1-6.7 2.7-13.2 5.8-18.4 11-.6.6-1.2 1-2.1.8-1.5-.2-3-.3-4.5-.6l-11.4-2.7c-.8-.2-1.6-.5-2.7-.5 6.3 5.3 29.2 6.8 36.7 2.2-2.7.5-5.2.9-7.6 1.2-2.5.3-4.9.9-7.7.2.9-.7 1.4-1.3 2.1-1.7 4.9-3.9 10.4-6.8 16.2-9.2.9-.6 1.8-1.2 2.8-1.7.1 0 .3 0 .4-.1.1 0 .1-.1.1-.1-.1 0-.3.1-.5.2zm63.1 41.4c3.6-1.6 7.2-3.1 11-4.2 6.5-1.8 13-2.5 19.7-1.6 5.6.8 11 2.1 15.6 5.7.3.2.7.2 1.1.3-.5-1.1-1.2-1.8-2-2.5-2-1.6-4.3-2.7-6.8-3.5-9-2.7-18.1-2.8-27.2-.2-4.2 1.2-8.2 2.8-11.7 5.4-.6.3-1.2.5-1.8 1.7 1-.4 1.5-.7 2.1-1.1zm16.2-54.3c.6-.5 1.2-1 1.8-1.6 4.7-4.3 10-7.4 16.4-8.1.6-.1 1.4-.1 2.2-1-1.7.1-2.9.1-4.2.2-2.4.2-4.6 1.1-6.8 2.1-.5.2-1 .4-1.5-.1-1.3-1.2-.1 1-.9.6-.5-.8-1.1-1.7-1.6-2.5-.1.1-.2.1-.4.2.2.7.5 1.4.7 2.1-3.7-4.8-4.1-5.2-5.6-5.6 1.2 1.8 2.4 3.6 3.6 5.5-.7-.7-1.5-1.4-2.2-2.2-4-4.2-8.4-7.8-13.6-10.4-.8-.4-1.7-.8-2.5-1.1.4.7 1.1 1.2 1.7 1.6 6.2 3.7 11.5 8.3 16 13.9.5.6 1.2 1.2-.2 1.5.1 1.4-1.1 2-1.8 3-.4.7-.9 1.3-1.3 2-.1.2-.2.4-.3.7.1-.4.3-.6.5-.8zm-108.7 51.2c-1.2-.2-2.1.3-3 .7-7 3.6-13.2 8.1-18.4 14-7.4 8.5-13 18.2-15.9 29.2-1 3.9-1.7 8-2.1 12-.1.8-.2 1.7.5 2.7.3-1 .6-1.7.7-2.4.7-4.2 2-8.2 3.4-12.2 2.5-6.9 5.3-13.7 9-20.1 3.8-6.5 8.5-12.1 14.6-16.6 3-2.2 6.1-4.1 9.1-6.2.8-.3 1.5-.7 2.1-1.1zm-87.1 85h.3c.2-.6.5-1.2.6-1.8.4-1.8.7-3.6 1.1-5.4.9-4.5 1.6-9 2.7-13.4 1.4-5.5 4-10.6 6.6-15.7 1.5-3 3.5-5.7 5.2-8.6.3-.4.5-.9.8-1.3-.6-.1-.9.1-1.2.3-2.7 2.3-5.1 4.8-6.9 7.9-3.3 5.9-5.5 12.2-6.5 18.9-1 6-1.8 12-2.7 18-.1.5 0 .8 0 1.1zm254.3-113.3c-.1.2-.2.5-.2.7.3 2 .7 3.9 1 5.9.2.9.5 1.6 1.2 2.2.8.7 1.6 1.6 2.3 2.4 2.6 3.3 4.7 6.8 6.6 10.5.4.7.8 1.5 1.4 2.5.6-6.6-7-21.3-12.3-24.2zm-22.8-14.9c0-.1-.1-.3-.1-.4-.9.1-1.7.1-2.6.2-6.7 1.1-12.7 3.7-18.2 7.6-.6.4-1.1.9-1.6 1.4-4.7 4.4-8 9.7-10.2 15.7-.4 1.1-.6 2.3-.8 3.5-.1.4.2.8.3 1.3l.5-.5c.2-.6.5-1.2.7-1.8 1.4-4.2 3.4-8.1 6-11.7 2.3-3.2 4.9-6.1 8.3-8.2 5.1-3.1 10.3-5.8 16.3-6.7.3-.1.9-.2 1.4-.4zM178.2 296.1c.1.1.3.2.4.3.3-.3.8-.6 1-.9 1.5-2.1 3-4.1 4.3-6.3 3.9-7.1 6.6-14.7 8.1-22.7.7-3.5 1.2-7.1 1-10.7 0-1 0-2-1-3.3 0 8.2-1.4 15.7-3.9 23-2.6 7.2-5.5 14.2-9.9 20.6zM256 143.4c3.2-2.1 6.3-4.3 9.6-6.1 3.3-1.8 6.7-3.4 10.1-4.9 3.5-1.6 7.3-2.4 11.1-2.8 3.8-.3 7.5-.5 11.4-.8-9.8-3.9-33.6 4.3-42.2 14.6zm-42.1 226.8c.2-1.2-.2-2.1-.4-3.1-.9-3.8-1.8-7.6-2.6-11.4-1-4.9-1.2-10-1.4-15 0-.5.2-1.1-.6-1.4-2.2 7.3.6 25.3 5 30.9zm20.6-191.3c-4 .7-10.5 6.1-14.2 11.4-2.9 4.1-4.2 6.8-4 8.5 1.9-2.6 3.5-5.2 5.4-7.5 1.8-2.3 3.7-4.6 5.9-6.6 2.1-2 4.6-3.8 6.9-5.8zm149.5-61c-.5-.4-.7-.8-1.1-.9-1-.2-2-.5-3-.5-5.9 0-11.4 1.5-16.1 5.1-2.6 2-4.7 4.5-7 6.9-.3.3-.4.7-.6 1.1 1.8-1.2 3.2-2.7 4.7-4 1.6-1.4 3.1-2.8 4.9-3.8 1.8-1 3.7-1.8 5.7-2.4 2-.6 4-1.2 6-1.4 2.1-.4 4.2-.1 6.5-.1zm-96.4 4.1c.1-.1.2-.3.3-.4-.4-.4-.7-.8-1.1-1.2-7-6.5-15.4-9.2-24.7-9.5-1.9-.1-3.8 0-5.6 1.1 11.8-1.2 21.9 3.2 31.1 10zm-98.1 161.1c.2.1.3.2.5.3.4-.5.9-1.1 1.3-1.6 3.3-5.6 4.9-11.8 5.2-18.2 0-.5 0-1-.1-1.4 0-.2-.3-.4-.4-.4-.2 0-.5.2-.5.3-.2.8-.5 1.5-.5 2.3-.5 5.5-2.1 10.8-4.3 15.9-.6.9-.9 1.9-1.2 2.8zM175 164.2c8.4-7.6 17.5-13.9 28.8-17.2-1.1-.5-1.8-.3-2.6-.1-1.9.6-3.9 1.1-5.7 1.9-7.3 3.3-13.7 7.8-19.2 13.7-.5.5-.9 1.1-1.3 1.7zm207.4.1c1.6-.5 3.1-1.3 4.7-1.5 2.7-.5 5.5-.7 8.3-.9 3.2-.2 6.1-1.2 8.5-3.4.3-.3.5-.7 1-1.4-.7.4-.9.4-1.1.6-2.8 2-5.9 3-9.4 3.1-2.5.1-4.9.4-7.4.9-1.8.2-3.5.8-4.6 2.6zM159 290.7c1-.5 1.2-1.5 1.6-2.3 2-4.4 4.2-8.7 6.9-12.8.7-1.1 1.4-2.1 2-3.2.2-.3.2-.7.5-1.5-4.9 5.3-10.9 16.1-11 19.8zm37.4-16.1c.5-.5.8-.6.9-.8 1.5-2.3 2.2-4.9 2.3-7.6 0-.4-.1-.8-.2-1.2-.1-.2-.3-.3-.5-.4-.1 0-.3.1-.4.2-.2.3-.3.5-.4.8-.5 2.3-1.1 4.6-1.6 7 0 .5 0 1.1-.1 2zm144-128.4c-.9-2.5-2.6-3.9-6-5.4-3.2-1.4-5.6-1.6-7.8-.7 5.4.1 9.5 2.8 13.8 6.1zm52.3 18c4.8 1.3 12.7-2.5 13.2-6.3-3.6 3.9-7.9 5.7-13.2 6.3zm-65.5-62.1c2.2 1.5 3.9 2.8 5.6 4 1.8 1.2 3.3 2.8 5.7 4.1-2.7-3.4-8.5-7.5-11.3-8.1zm45.1 44.2c2.7-2.9 6.3-4.5 9.8-6.3-3.9.4-8.4 3.2-9.8 6.3zM213.4 350.8c-1 2.4-.7 5.7.7 8.1.2-2.8-.2-5.3-.7-8.1zm-.4-162.5c2-2.4 4-4.7 6-7.1 0-.1.1-.2 0-.2 0-.1-.1-.1-.3-.4-2.6 2-4.5 4.5-5.7 7.7zm81.6-88.2c1.5.4 3.1.7 4.6 1.1 1.5.4 3 1 4.5 1.5-2.7-2-5.7-2.9-9.1-2.6zm-2.6 66.8c3.3 0 6.6-1.5 7.7-3.2-2.7 1.1-5.2 2.1-7.7 3.2zm-106.7 78.9h.2v-5.5h-.2v5.5zm27.6-8c-.1 0-.1 0-.2.1v2.2h.2v-2.3zm125.2-109.2c-.8-1.4-1.6-1.7-3-1.3 1 .5 1.7.8 3 1.3zm91.5 45.1v.8h.2c0-.1.1-.3.1-.4-.1-.2-.2-.3-.3-.4zm-72.3-7.7c-.1.1-.2.1-.3.2.1 0 .3.1.4.1.1 0 .2-.1.3-.2-.1 0-.2 0-.4-.1zm34.3-36.2h.2l.1-.1s-.1 0-.3.1c.1-.1.1-.1 0 0zm-36.5 1.4.2-.2c-.1 0-.2-.1-.3-.1 0 0 0 .1-.1.2.1.1.1.1.2.1zm-181.3 34.9c-.1.1-.2.1-.3.1l.1.1c.2 0 .2-.1.2-.2zm188.1-63.8s.1 0 .1-.1 0-.1-.1-.2c-.1 0-.2.1-.2.1.1.1.2.1.2.2zm8.6 34.4c.1 0 .2-.1.3-.1l-.1-.1-.2.2zm-71.7-18.2-.3-.3-.1.1.3.3.1-.1zm74.2 59.7c.1.1.2.1.4.2 0 0 .1-.2.2-.3-.1 0-.1-.1-.2-.1-.2.1-.3.2-.4.2zm15.7-48.9v-.1l-.1.1h.1zM201.5 268.1c-.1 0-.2-.1-.3-.1 0 .1-.1.2 0 .2.1.1.2.2.2.3 0-.2 0-.3.1-.4zm2.5-116.4v.2l.2-.1-.2-.1zM185 255l-.1-.1v.2l.1-.1zm190.4-76.2c.1 0 .1-.1.2-.1l-.1-.1-.2.2h.1zm-21.2-12h.2v-.2h-.2v.2zm-168.8 86.1v.3l.1-.1c0-.1 0-.2-.1-.2zm44.3-75.2.1.1v-.1h-.1zM200.6 369.9v.1-.2z" class="st38"/>
  <path d="M357.4 91.1c-.1-.1-.2-.1-.2-.2h.1c.1.1.1.2.1.2zM178.5 166.9c0 .1 0 .1 0 0zM359.8 116c.1 0 .1 0 0 0zM389.1 151.6c.4-.3.7-.5 1.1-.8 2.4-.5 4.8-1 7.2-1.3 1.3-.2 2.7-.3 3.9.4-4.2-.3-8.2.9-12.2 1.7zM235.1 142.9l.1.1-.1-.1zM235.1 142.9l-.1-.1c.1 0 .1.1.1.1zM231.6 141.5l.2.1-.1-.1zM274.4 111.3h1v.5c-.3-.2-.7-.4-1-.5zM275.5 111.8h.9c-.3-.1-.6 0-.9 0zM384.8 179.9c-.8-.5-1.6-1-2.5-1.5.9.5 1.7 1 2.5 1.5z" class="st38"/>
  <path d="M245.7 519.6c-.3-.4-.6-.8-.9-1.1-7.5-6.9-13.8-14.8-20-22.9-.8-1.1-1.6-2.3-2-3.5l-9-26.1c-.6-1.7-1-3.4-1.4-5.1-.1-.3-.1-.7.2-1.2l.9 1.2c4.4 7.5 8.6 15.2 13.1 22.6 7.8 12.8 17.2 24.3 28.5 34.1 6.5 5.6 14.1 9.3 21.8 12.9 5.1 2.4 10.6 3.5 16.2 4 2.1.2 4.3.4 6.5.8-6.1 1.8-12.3 2.1-18.6 2.8 5.6.6 11.2.2 16.8-.8 0 .2.1.3.1.5-1 .2-2 .5-3 .7-1.2.2-2.4.4-3.6.5-1.1.1-2.2.3-3.9.5 2.9 1.8 5.7 2.9 8.3 4.2 2.7 1.3 5.5 2.5 8.3 3.7 2.8 1.1 5.6 2.2 8.4 3.2 0 .2-.1.3-.1.5-2.9-.2-5.7-.4-8.6-.7v.5c13.5 2.5 27.1 3.4 40.8 2.1-7.5 3.5-15.6 4.5-23.8 5.5 1.2.1 2.3.2 3.5.2 1.2 0 2.4 0 3.6-.1 1.3-.1 2.5-.3 3.5-.4.6.5.9 1.1 1.4 1.3 3.7 1.4 7.6 1.8 11.6 1.3 2.9-.3 5.8-.7 8.8-.9-1.1.5-2.2.9-3.4 1.4v.3c.9-.1 1.8-.2 2.6-.4 4.8-1.2 8.9-3.3 11.7-7.7 1.1-1.7 2.5-3.3 3.9-4.8.7-.7 1.6-1.2 2.5-1.9.1.4.2.6.1.7-2.6 2.6-4.3 5.8-5.4 9.2-1 2.9-2.5 5.5-4.8 7.7 6.5.9 12.7-.6 18.8-2.4 6.1-1.8 11.3-5.4 15.9-9.7-2.9 5.3-7.2 9.2-12.6 12.2.6 0 1.2.1 1.7.1 2.2-.2 4.5-.3 6.7-.6.9-.1 1.8-.3 2.5-.7 6-2.9 11.6-6.4 16.2-11.3 1.1-1.2 2.2-2.5 3.2-3.9 2.6-3.4 3.4-7.2 3-11.5-.6-5.8-.6-11.6.6-17.4 2.1-10.1 2.4-20.3 2.4-30.5 0-2.6-.6-5.1-1.8-7.4-1.9-3.7-5.3-5-9-3.5-5.5 2.3-11.2 3.6-17.2 4-4.3.3-8.5-.2-12.6-.9-7.7-1.3-15.4-3-23.1-4.4-2.9-.5-5.9-.5-8.8-.8-.5 0-1 .1-1.4.3-1.4.6-2.7 1.2-4.1 1.9-1.2.6-2.4 1.2-3.5 2-2.4 1.8-4.6 3.8-7 5.5-2.3 1.6-4.7 3-7.4 4.2.2-.4.3-.8.5-1.1 3.2-3.9 6.4-7.8 9.5-11.7 2.3-2.9 5.1-4.1 8.7-4 8.9.2 17.9.7 26.8 1.6 3.5.4 7 .3 10.5.1 6.1-.3 12.3-.6 18.4-1.2 6.9-.7 13.8-1.6 20.7-2.6 1.9-.3 3.8-1.1 5.7-1.8 2.4-1 4.6-2.1 7-3.2 2.1-.9 4-2 5-4.2.2-.5.5-.9 1.1-1.2.4 4.7-3.2 7.9-4.2 12.3 1 .2 1.9.4 2.8.6 2.2.4 3.2 1.9 2.2 4-.5 1.1-1.3 2-2.1 2.9-1.3 1.4-2.7 2.7-4 4.1-2.8 3.1-4.8 6.6-5.3 10.8-.3 2.7-1.2 5.1-2.6 7.4-2.9 4.8-4.3 9.9-4.8 15.4-.2 1.8-.3 3.7-.7 5.5-.8 3.4.1 6.3 1.9 9.1 1.1 1.7 2.2 3.5 3.4 5.3 3-7.9 6-15.7 10.2-23 .1-.2.4-.2.8-.5 0 .7.2 1.2.1 1.6-2.6 10-3.4 20.2-3.7 30.4-.2 5.2.1 10.4.2 15.6.1 7.8-1.4 15.4-3.5 22.9-3.4 12.1-8.2 23.5-15.6 33.8-8.5 11.9-19.2 21.4-31.7 28.8-2.1 1.2-4.4 2.1-6.7 3 26.8-15.6 43.4-38.7 50.7-68.7-.4.7-.7 1.5-1.1 2.2-3.9 7.2-7.9 14.5-11.9 21.7-2.6 4.8-6.6 8.4-10.4 12.2-.6.6-1.5 1-2.3 1.5-.2-.1-.3-.3-.5-.4.2-.5.3-1.1.7-1.5.9-1 1.8-2.1 2.8-3 1.6-1.5 2.7-3.4 3.2-5.5 1.3-5.6 3.5-10.8 6.2-15.8 2.4-4.4 3.5-9.3 4-14.2.2-1.7.4-3.3.6-5 .5-3.5 1.6-6.8 3.9-9.7 1.8-2.2 2.8-4.6 3.1-7.7-1.1 1-2 1.8-3 2.5-6.3 4.8-13.3 8.1-21 9.4-6.8 1.2-13.6 2-20.4 2.9-2.8.4-5.5.8-8.3 1-3.9.3-7.8.4-11.7.9-3.4.5-6.8 1.1-10 2.2-7.4 2.5-14.9 4.2-22.7 4.9-1 .1-1.9-.1-2.9-.4 5.2-1.7 10.7-2.5 15.9-5.5-6.5.9-12.5 1.7-19.2.5 4.5-1.3 8.5-2.4 12.5-3.5 0-.2-.1-.4-.1-.6-9.6 1.7-19.3 2.9-29.3.3 3-1.3 6-1.1 8.9-2.1-.9-.1-1.8-.2-3-.3 4-.7 7.7-.5 11.2-2-7.1.8-14.3.8-21.4-.1-7-.9-14-1.9-20.8-3.9v-.6c1.2-.1 2.4-.2 3.5-.4-5.5-1.4-11.1-2.2-15.3-6.5 1.5.1 3 .3 4.5.4-4-2.1-8.3-3.4-11.7-6.4-3.3-2.9-6.4-6.1-9.5-9.1-.1-.1-.2-.4-.3-.8 5 2.7 9.9 5.1 15.3 6.4-9.2-5.3-17.4-11.7-23.8-20.4 4.7 3 9.4 6 14.8 7.4-7.1-3.4-13.5-7.7-19-13.3 2.7.9 4.6 3.1 7.4 3.6-1.3-1-2.6-2-4-2.9-4.2-2.6-7.3-6.2-9.2-10.7-1.4-3.1-3-6.2-4.7-9.8 1.3.6 1.7 1.4 2.2 2 4.2 5.1 8.3 10.2 13.2 14.6 1.5 1.4 3.2 2.5 4.9 3.8.5.4.9.8 1.4 1.3.1-.1.2-.3.3-.4-.4-.5-.9-.9-1.4-1.2z"/>
  <path d="M194.1 431.9c-8.1 3-15.5 1.1-22.6-2.9-1.8-1-3.1-2.5-4.3-4.1-2.1-2.8-4.4-5.5-6.6-8.2-.9-1-1.9-2-2.8-3-4.9-5.1-8-11.1-9.2-18.1-1.9-10.6-3.5-21.3-4.3-32.1-.6-8.1 1-15.7 5.2-22.8 1.3-2.1 2.3-4.4 3.4-6.6.7-1.3 1.3-2.6 2.1-3.8 3.4-5 8.8-6.9 14.5-4.7 2.4.9 4.6 2.2 6.7 3.6 4.6 3.1 8.4 7.1 11.8 11.5.4.5.7 1.2 1 1.8l-.4.4c-.5-.5-1.1-1-1.6-1.5-4.6-4.4-9.5-8.3-15.2-11.2-1.6-.8-3.4-1.5-5.1-1.9-3.3-.7-6 .3-8 3-.9 1.3-1.7 2.7-2.4 4.1-1.3 2.5-2.4 5.1-3.9 7.5-3.7 6.1-5.1 12.7-4.6 19.8.8 10.2 2.1 20.4 4.3 30.4.5 2.2 1.3 4.4 2.2 6.6 1.4 3.4 3.6 6.2 6.8 8.1 2.8 1.7 5.1 4 7.4 6.4 2.8 2.8 5.7 5.3 8.8 7.8 3 2.4 6.7 3.3 10.5 3.5 1.8.1 3.7 0 5.5-.1 1.6-.1 2.7.4 3.2 1.9.3.9.7 1.8.9 2.7 5.3 19.2 9.6 38.6 13.4 58.2 1.5 8 2.6 16.1 2.5 24.3 0 3.3.3 6.6.1 9.8-.2 5-1.8 9.7-4.4 14-2 3.3-4.6 5.9-8 7.7-3.6 1.9-7.2 3.8-10.8 5.8-5.4 3-10.2 6.6-14.6 10.9-2.3 2.3-3.4 4.9-3 8 .5 4.4 1 8.9 2 13.3 3 13 7.9 25.1 15.2 36.3 5.4 8.2 12 15.1 20.1 20.7 5.5 3.8 11.2 7.2 17.1 10.1 14.4 7.1 29.4 12.4 45.2 15.4 3.4.6 6.8 1.1 10.2 1.7.9.2 1.8.3 2.7.9-2 0-4 .1-6 0-13.7-1.2-27-3.7-40-8.4-9.4-3.5-18.5-7.5-27.1-12.6-10-6-19.1-13.2-26.3-22.5-10.2-13.2-16.7-28.2-19.6-44.6-1.2-6.5-.7-13 1.1-19.5 1.8-6.2 5.9-10.1 11.4-12.8 1.8-.9 3.8-1.3 5.7-1.9 3.1-1 6.3-1.9 9.4-2.9 5.2-1.7 9.1-5.3 12.5-9.4.5-.6.8-1.5 1.1-2.4 2.5-8.8 2.9-17.8 2.1-26.9-1.1-11.5-3.7-22.7-6.2-33.9-2.7-11.9-5.7-23.8-8.5-35.7-.1-.6-.4-1.2-.6-1.7zM357.7 292.8c-.8-.4-1.7-.8-2.5-1.1-6-2.3-12.3-3.5-18.7-3.8-4.5-.2-9-.3-13.4 0-9.5.7-18.7 3-27.6 6.6-3.9 1.6-7.9 3.1-12.1 3.8-1.4.2-2.8.3-4.2-.2-2.4-.9-4.8-1.6-7.3-2.4-.6-.2-1.2-.6-2.3-1.1 2.5-.9 4.4.1 6.2.4 1.9.3 3.7.8 5.6 1-6.9-2.5-14.1-2.7-21.7-2.7.5-.4.7-.7 1-.9 8.2-4.2 16.6-8.2 25.7-10.3.3-.1.6-.3.9-.3 3 .3 5.6-1.3 8.5-1.6 2.9-.3 5.8-.9 8.8-1.3 3.6-.5 7.1.5 10.7 1.1.3.1.6.1 1-.1-1-.4-1.9-.9-3.1-1.4.5-.2.8-.5 1.1-.5 3-.2 6-.2 9.1-.4 1.2-.1 2.4-.3 3.5-.4 4-.3 7.8.7 11.4 2 1.1.4 2 .9 3.3.8 1.3-.1 2.8.6 4.1 1 2.4.8 5 1.2 6.6 3.8.3-.7.4-1 .6-1.5 2.1.6 4 1.4 5.8 2.7 1 .7 2.2 1.4 3.3 2 1.3.7 2.2 1.6 2.2 3.1.1.1.2.1.2.1.5-1.1 1.1-.9 1.9-.3l6.3 4.8c2.6 1.9 5.1 3.9 7.7 5.7 2.5 1.7 3.6 4.2 5.2 7.2-1.6 0-2.4.1-3.2 0-2.5-.2-5.1-.4-6.6-2.9-5.8-4.3-12-7.9-18.6-10.8-2.6-1.1-5.4-1.9-8.4-.9-.5.2-1.1 0-1.6-.1-4.8-.6-9.5-1.3-14.3-1.1-1.1.1-2.2.3-3.3.5-1 .2-2 .4-3.1.4-6.4.2-12.7 1.2-18.8 3.4-1.9.7-3.7 1.3-5.1 3-.4.4-1.1.8-1.6.8-5.3.3-10.7.3-16.4-1.1.8-.3 1.2-.5 1.6-.6 3.2-1.1 6.4-2 9.5-3.2 13.4-5.2 27.2-8.1 41.7-6.8 6.1.5 12 1.5 17.8 3.6.8.3 1.6.5 2.4.7.1-.5.2-.6.2-.7zM414 333.4c0-1.7.6-2.9-.7-3.8-.2-.2-.1-1.2.1-1.8.4-1 1-1.8 1.4-2.7-1.4-2.4-.2-4.5.9-6.4.6-1.1 1.6-2 2.6-2.8 1.2-.9 1.6-2 1.8-3.5.7-6.4 2.5-12.5 4.6-18.6.8-2.5 3-3.3 5.1-4.3 0 0 .3.3.5.6 1-1.9 2.9-2.9 4.7-3.8 3.9-1.9 7.7-3.8 11.7-5.6 1.6-.7 3.4-1.2 5.2-1.8-1.9-5.2-2.7-10.5-3.3-15.8-.4-4-.4-8-.4-12 0-2.9-.4-5.7-1.2-8.5-2.3-7.6-4.3-15.2-7.8-22.4-2-4.1-3.8-8.2-5.7-12.3 1.9-.4 2.1-.4 2.9 1.4 4.1 8.9 8.3 16.6 10.7 26.1 1.7 4.8 3.1 7.7 3.9 12.7.8 4.7 1 12.8 2.5 17.3 1.1 3.4 2.4 6.6 4.2 9.6 1.9 3.3 2.9 6.9 3.6 10.6.3 1.8.9 3.6 1.2 5.3-1.2-.4-3.2-.1-3.2-.1-3 .5-6.9.3-9.1 2.4-1.7 1.6-3.5 2-6 2 .6-1.6 1.1-2.9 1.6-4.3-.1-.1-.2-.2-.4-.3-.7.8-1.4 1.5-2 2.4-1.2 2-2.9 3.1-5.2 3.2-.3 0-.6.2-1.1.3.1-.9.1-1.7.2-2.7-4.5 5.5-8.6 10.9-12 17.4 6.4-2.2 12.5-2.7 18.8-1.9-3.1.6-6.3 1-9.4 1.7-4.5 1-8.3 3.3-11.8 6.2-.8.7-1.5 1.6-2.2 2.4.1.1.2.3.3.4.5-.2.9-.4 1.4-.6 5.6-3.3 11.8-4.4 18.2-4.2 3.2.1 6.4.4 9.4 1.6 1.3.5 2.6 1.2 3.8 2 .6.4 1 1.3 1.5 1.9-1 1-1.7.3-2.4.1-5.6-2-11.3-2.5-17-1-7.6 2.1-14.8 5.2-20.1 11.5-.2.7-.8 1.2-1.8 2.1zM414.4 345.5c.2.6.5 1.3.6 1.9.3 1.4.6 2.8 1 4.2.8 3 1.1 6.3 3.3 8.8.3.3.4.7.5 1.1 4.1 10.5 11.3 18.6 19.3 26.2 2 1.9 4.2 3.7 6.1 5.7 1.3 1.3 2.5 2.7 3.5 4.2 1.5 2.3 1.6 4.9.2 7.3-1.1 1.9-2.4 3.8-3.8 5.5-5.4 6.5-11.6 12.1-18.5 17-2.7 1.8-5.6 3-8.7 3.8-3.6.9-7.2 1.9-10.8 2.9-1.5.4-3.1.9-4.6 1.3-.6.1-1.2.1-1.8.1-.1-.2-.1-.3-.2-.5 3.2-1.9 6.3-4 9.6-5.7 4.4-2.3 8.4-5.2 11.8-8.8 2.5-2.7 4.4-5.9 5.4-9.5 1.2-4.3.4-8.5-1.1-12.7-1.7-4.6-3.3-9.3-5-14-.2-.6-.3-1.3-.5-1.9.2-.1.3-.1.5-.2.5.9 1 1.8 1.3 2.7 1.7 4.2 3.5 8.4 6 12.2 1.3 2 2.2 4.3 3.1 6.5 1.1 2.7.8 5.5.2 8.4 4.5-5.4 4.7-10.8 1.8-15.3-1.7-2.6-3.2-5.4-5.1-7.9-6.8-8.8-10.6-18.9-12.7-29.7-.7-3.7-1.4-7.4-2-11.1-.1-.8 0-1.7 0-2.5.3.1.4 0 .6 0z"/>
  <path d="M454.6 378.5c-1.6 0-3.3.1-4.9 0-2.4-.3-4.7-.7-7.1-1.2-5-1.1-9.1-3.5-12.7-7.2-9.4-9.5-13.6-21-13.6-34.2 0-.6.1-1.1.2-1.7.2-.9.7-1.4 1.7-1.3 6.8 1.1 13.3 3 17.6 9 2.7 3.8 3.9 7.9 3 12.4-.8 4 .1 7.6 2.6 10.8 3 3.9 6.1 7.8 10.3 10.6 1 .7 2.1 1.3 3.2 1.9-.2.4-.2.7-.3.9zM347.7 317.8c-4.2-4.2-9-7.4-15-8.8-7.8-1.8-15.4-1.2-22.9 1.1-4.1 1.2-7.8 3.2-11.1 6-2.7 2.3-5.2 4.7-7.9 7-.8.7-1.6 1.3-2.6 2.1.4-2.2.7-2.7 5.5-6.8 2.3-2 4.6-4 7.2-5.6 2.5-1.6 5.1-2.9 7.9-4 2.7-1 5.7-1.6 8.5-2.4-1-.8-2-1.6-3.4-2.8-1.8.4-3.9.8-6.1 1.3 0-.1-.1-.1-.1-.2.4-.3.8-.6 1.3-.8 11.8-6.2 31.2-3.7 41.1 9 1.9 2.4 3.6 4.9 5.3 7.4 1.3 1.8 2.4 3.7 3.5 5.7.6 1 1.1 2.2 1.4 3.3.5 2-.5 3.3-2.6 3.3-1.9.1-3.6-.5-5.1-1.8-.9-.8-1.7-1.7-2.5-2.6-6.7-7.4-15-10.9-24.9-10.6-2 .1-4.1.5-6.1 1.1-4.9 1.4-9.6 3.6-14 6.2-3.2 1.9-4.2 2.6-6.6 4.6 6.2 3.9 12.2 7 18.8 9.3-.3.1-.7.4-1 .4-7-.3-16.2-1.8-22.8-4.8-.8-.4-1.6-.9-3-1.8 1.1-.8 1.8-1.3 2.5-1.8 7.3-5.8 14.9-10.9 23.6-14.5 10.5-4.4 20.9-4.5 31.1 1.5zM446.1 471.7c-1.9-8.3-6.5-15-12-21.2-.3-.4-.9-.5-1.8-1 1.2 2.6 2 4.8 1.7 7.7-1-.5-1.7-.7-2.4-1.2-2.1-1.4-4.2-2.9-6.2-4.4-1.7-1.2-3.5-1.4-5.4-.6-2 .8-4 1.6-6.1 2.2-.8.2-1.6.2-2.9.3.5-1 .7-1.6 1-2.1.5-.7 1.1-1.4 1.7-2 1.9-1.9 2.9-4.2 3.1-6.8 0-.6.1-1.1.1-1.7.3-4.2 1.8-5.6 5.9-5.5 4.2.1 8.3.9 12 2.9 5 2.7 8.6 6.6 10 12.2.2.8.5 1.5.8 2.3 2.1 5.4 2.7 11 2 16.7-.1.8-.5 1.6-.7 2.3-.3-.1-.5-.1-.8-.1z"/>
  <pattern xlink:href="#Hachure_N4" id="SVGID_00000081647614172978940890000016907102790704326331_" patternTransform="scale(.5) rotate(45 -6787.705 -22619.23)"/>
  <path d="M195.7 406.2c-1.3-6.6-4.1-12.1-11.4-13.8l-.9-.3c-3.1-1-4.9-3.1-5.4-6.4-.9-5.9 0-11.5 2.7-16.8 1.2-2.3 2.5-4.4 3.8-6.7.2-.4.4-.8.6-1.3.1-.3.2-.6.4-1-2 .5-2.2.6-3.6 2.3-5.1 5.8-8.4 12.4-9.8 20-.8 4.6-.5 9.1 2.8 12.9.1.2.2.4.3.7-2 .3-3.6-.4-4.5-2.1-.9-1.8-1.5-3.7-2.1-5.6-.3-.9-.2-1.9-1.3-2.8-.4 1-.9 1.8-1.1 2.7-1.1 6.1 2.8 11.1 9 11.6 2 .1 4 .3 5.9.7 5 1 8.5 4.2 11.5 8.1l.9 1.2c.5.7 1.2 1.2 2.2 1.5.8-1.6.3-3.3 0-4.9z" style="fill:url(#SVGID_00000081647614172978940890000016907102790704326331_)"/>
  <path d="M414.3 417.8c-1.4 1.9-2.7 3.3-4.5 4-2.1.8-4.2 1.6-6.3 2.2-1 .3-2.3.2-3.3-.1-3.2-.9-6.3-.7-9.2 1.1-2 1.3-4.2 1.5-6.5.8-1.8-.6-3.7-1-5.5-1.7-1.9-.7-3.5-1.9-4.7-3.6-1.5-2.2-1.2-4.3 1.1-5.7 2.4-1.5 5.1-2.1 7.8-1.7 3.7.6 7.3 1.5 11 2.3 3.3.8 6.5 1.8 9.7 2.5 3.4.7 6.7.9 10.4-.1zM174.3 345.4c-.5-.1-1.1-.2-1.6-.5-1.1-.5-2.1-1.1-3.2-1.5-1.6-.7-3.2-.4-4.4.9-1.1 1.2-2.3 2.6-2.8 4.1-1.2 3.4-2.3 6.8-3.1 10.3-1.4 5.6-1.7 11.4-1.6 17.1 0 .5.1 1 .1 1.4 0 .1.2.2.4.5 1.2-4.1 2.4-8.1 6-11.4-.1.8-.1 1.2-.3 1.4-3 4.9-3.8 10.4-4.6 16-.2 1.2-.1 2.6-1.7 3.6-.5-.8-1.2-1.6-1.4-2.4-.7-2.9-1.6-5.9-1.9-8.9-.8-6.7-1.2-13.4-.2-20.1.4-2.5.8-5 1.5-7.5.7-2.7 2-5 4-7 3.7-3.5 9-3.4 12.5.2 1 1 1.8 2.2 2.7 3.2-.1.3-.2.5-.4.6zM353.5 334.2c1.4.1 2.9.1 4.3.3 1.9.3 2.6 1.3 1.9 3-.9 2.1-2 4.2-3.2 6.1-1.3 2-3.4 2.9-5.8 2.7-1.1-.1-2.2-.2-3.3-.5-3.2-.9-6.4-1-9.7-1-3.1.1-6.2-.4-9.1-1.5-.9-.3-2.2-.7-2-2 .1-1.2 1.3-1.3 2.2-1.4 4.1-.4 7.9-2 11.7-3.3 4.2-1.5 8.5-2.4 13-2.4zM375.8 578.3c-.6.4-1.2.7-1.8 1.1-8 4.9-15.9 9.8-22.5 16.5-2.9 2.9-5.1 6-6.4 10-1.4 4.5-4.3 8-8.5 10.2-1 .5-1.8 1.3-2.8 1.8-.6.4-1.3.7-2 1-.1-.2-.2-.3-.3-.5.4-.4.7-.9 1.1-1.3 1.8-2 3.6-3.8 5.2-5.9 1.8-2.3 2.8-5 2.8-8 .1-6.1 2.8-10.8 8.2-13.7 8-4.3 15.9-8.8 24.7-11.3.7-.2 1.3-.4 2-.6.2.4.3.6.3.7zM463.4 362.1c-.6-.9-1-1.4-1.3-1.9-1-2.4-2-4.7-2.8-7.1-1.4-4.2-3.9-7.7-7-10.7-.8-.8-1.7-1.1-2.8-1.1-2.1-.1-4.1-.2-6.2-.5-1.1-.1-2.2-.3-3.1-1.7 1.3-.2 2.3-.4 3.4-.5 1-.1 2.1 0 3.1-.1 4.5-.3 6.7-3.4 5.4-7.8-.6-2.1-1.5-4-2.2-6.1-.1-.4-.1-.8-.2-1.4 1.6-.2 2 1.1 2.8 1.7.9.6 1.7 1.2 2.4 1.8 1-1.2 2-2.3 2.9-3.4.9-1.1 1.4-2.4 2.9-3.4.1.6.2.9.1 1.2-2.7 10.9-1.4 21.7 1.2 32.5.6 2.2 1 4.5 1.4 6.8.3.4.2.7 0 1.7zM405.2 505.1c1.1 2.8 2.1 5.3 3.2 7.9l-.3.3-1.2-.9c-1.6-1.5-3.1-3-4.7-4.4-3.4-2.9-7.2-3.5-11.3-1.4-3.1 1.6-6.2 1.9-9.4.1-1.4-.8-2.9-1.2-4.4-1.9-.7-.3-1.3-.7-1.9-1.1 0-.2.1-.4.1-.6.6 0 1.3-.1 1.9-.1 2 .1 4 .5 5.9.3 7-.7 14-1.4 20.9-2.4 3.3-.5 6.6-1.4 9.4-3.3.2-.2.6-.2 1-.3.6 1.5-.4 2.2-1.3 2.8-1.8 1.3-3.8 2.4-5.7 3.6-.6.4-1.2.8-2.2 1.4zM175.7 417c-.5-.4-1.1-.9-1.6-1.3-2-1.7-3.9-3.5-6-5.2-1.4-1.2-2.9-2.3-4.5-3.2-4.3-2.6-6.4-6.8-8-11.3-.4-1.2-1.1-2.5.1-4.2.5.8 1.1 1.3 1.3 2 1.5 3.5 3.9 6.2 7.1 8.2 4.6 2.8 7.8 6.7 9.9 11.7.4 1.1 1.2 2 1.8 3 .1 0 0 .1-.1.3zM377 431.6c-.2 0-.5.2-.7.1-3.8-1.1-7.8-1.9-11.4-3.5-6.8-2.9-9.4-9.9-6.6-16.7.3-.7.5-1.3 1.1-2.6 1 11.8 7.9 18.2 17.9 22.2-.1.2-.2.4-.3.5zM402.5 438.8c.8 1.7.6 3.4.2 5-.3 1.2-.7 2.4-1 3.7-.5 2-.7 4.1.3 6.1.3.5.3 1.2.5 2.1-.7 0-1.3.1-1.7 0-3.5-1.2-5.8-5.5-4.8-9.1.4-1.5 1.3-2.9 2.2-4.2.8-1.1 1.9-2.1 2.9-3 .4-.4 1-.4 1.4-.6zM503.3 304.8l-40.2 6.8s-.6 3.1-2 9.6c13.4-4.2 45.6-7.9 45.6-7.9l-3.4-8.5z"/>
</svg>
